<?xml version="1.0" standalone="no"?>
<!DOCTYPE svg PUBLIC "-//W3C//DTD SVG 20010904//EN"
 "http://www.w3.org/TR/2001/REC-SVG-20010904/DTD/svg10.dtd">
<svg version="1.0" xmlns="http://www.w3.org/2000/svg"
 width="477.000000pt" height="679.000000pt" viewBox="0 0 477.000000 679.000000"
 preserveAspectRatio="xMidYMid meet">

<g transform="translate(0.000000,679.000000) scale(0.100000,-0.100000)"
fill="#000000" stroke="none">
<path d="M1225 6519 c-33 -12 -71 -33 -84 -47 -26 -29 -26 -5 -1 -267 13 -131
8 -248 -14 -365 -16 -81 -12 -99 30 -126 20 -13 40 -16 94 -11 l70 6 0 -63 c0
-68 -17 -96 -57 -96 -12 0 -23 -6 -26 -14 -4 -9 -28 -17 -64 -21 -148 -18
-362 -94 -410 -146 -33 -36 -53 -103 -53 -174 0 -116 58 -350 149 -605 135
-376 221 -657 221 -721 0 -15 -7 -32 -15 -39 -8 -7 -17 -28 -21 -48 -6 -31 -3
-38 21 -58 28 -22 28 -23 22 -108 -6 -73 -20 -161 -66 -400 -8 -43 -7 -49 9
-53 15 -4 17 -13 13 -61 -11 -126 31 -229 106 -258 61 -24 65 -29 76 -92 7
-34 15 -65 19 -69 4 -4 26 -8 49 -8 70 -2 124 -24 138 -56 7 -18 19 -29 31
-29 11 0 33 -14 49 -31 19 -21 34 -29 47 -25 11 4 29 -2 45 -14 20 -16 40 -20
97 -20 81 0 125 -19 134 -56 4 -15 23 -31 56 -46 53 -24 54 -26 41 -46 -9 -15
-337 -112 -378 -112 -14 0 -53 -7 -86 -16 -57 -15 -68 -14 -147 1 -82 17 -87
16 -135 -2 -100 -37 -49 -90 95 -99 76 -4 262 38 295 66 11 10 88 36 170 59
153 42 215 65 215 78 1 28 18 32 56 14 21 -10 65 -27 97 -36 54 -16 57 -18 57
-49 0 -18 -9 -59 -20 -92 -17 -52 -25 -116 -44 -377 -2 -26 -5 -50 -8 -52 -3
-3 -49 4 -104 15 -116 24 -233 43 -437 70 -139 19 -151 19 -183 4 -47 -22 -68
-64 -59 -120 6 -39 4 -44 -14 -44 -45 0 -111 -82 -111 -138 0 -32 45 -82 74
-82 9 0 28 -11 42 -25 31 -31 72 -32 108 -4 41 32 54 69 62 166 8 103 -8 97
131 57 211 -60 259 -77 238 -85 -11 -4 -144 -55 -295 -113 -387 -148 -662
-260 -716 -291 -34 -20 -51 -39 -66 -72 -19 -43 -19 -48 -4 -87 9 -23 16 -72
16 -109 0 -64 2 -70 31 -97 36 -32 74 -47 65 -25 -3 8 3 19 12 24 9 6 13 11 9
11 -16 0 36 77 63 93 41 25 92 22 118 -6 12 -13 22 -30 21 -38 0 -8 -5 -4 -11
8 -19 39 -71 46 -116 16 -31 -19 -63 -92 -55 -123 24 -90 105 -76 168 31 19
33 35 65 35 71 0 31 -38 81 -91 118 -33 23 -57 45 -54 50 8 13 141 63 305 113
80 25 217 69 305 97 202 64 371 107 458 116 l67 7 0 -26 c0 -26 52 -77 79 -77
20 0 29 -39 61 -250 45 -304 46 -321 25 -390 -15 -49 -16 -66 -6 -104 6 -25
11 -79 11 -120 0 -66 3 -78 26 -105 35 -42 60 -40 79 7 20 49 75 87 127 87 33
0 46 -7 74 -38 20 -22 34 -47 34 -63 0 -30 23 -28 28 2 5 35 -76 184 -112 205
-27 16 -32 24 -28 48 2 18 -8 55 -27 100 -40 90 -46 125 -71 408 -18 206 -18
234 -5 260 8 15 15 34 15 42 0 11 15 13 78 8 110 -8 247 -38 487 -107 116 -34
235 -68 265 -76 202 -54 350 -109 350 -128 0 -6 -4 -28 -9 -48 -5 -22 -5 -38
0 -38 5 0 9 -7 9 -16 0 -8 -4 -12 -10 -9 -6 4 -10 -5 -10 -19 0 -14 6 -26 13
-26 9 0 9 -2 -1 -9 -8 -5 -12 -22 -10 -42 2 -26 8 -35 26 -37 12 -2 24 3 28
11 3 10 20 13 57 12 47 -2 54 1 70 27 9 16 17 39 17 53 0 13 4 27 10 30 11 7
12 -66 1 -105 -5 -18 -14 -24 -29 -23 -14 2 -22 -3 -22 -12 0 -24 36 -17 54
11 12 18 17 47 17 102 1 212 -8 242 -83 285 -36 20 -519 204 -755 288 -47 16
-63 26 -63 40 0 12 7 19 18 19 32 0 53 35 62 103 6 36 14 76 20 89 8 17 7 32
-4 60 -20 46 -50 68 -96 68 -43 0 -211 -32 -343 -65 -54 -14 -100 -25 -102
-25 -3 0 -5 80 -5 178 0 98 -3 182 -7 186 -8 8 -13 34 -18 101 -6 62 10 26 20
-46 3 -27 14 -54 25 -64 42 -38 203 -26 251 18 18 17 20 29 17 90 l-3 71 150
22 c352 53 797 178 913 259 62 43 81 71 100 151 26 106 22 208 -10 269 -38 73
-102 131 -191 173 l-77 37 6 90 c3 50 11 187 18 305 l11 214 125 2 c185 2 250
16 250 54 0 38 -21 68 -54 73 -17 3 -74 14 -126 25 -52 11 -158 25 -235 32
-77 7 -165 17 -195 22 -57 10 -104 11 -155 3 -18 -3 -23 -2 -13 3 10 4 -21 8
-71 9 -85 2 -89 1 -100 -23 -6 -14 -11 -32 -11 -40 0 -19 47 -39 130 -54 36
-7 79 -21 97 -32 18 -10 45 -20 60 -21 l28 -3 -4 -289 c-2 -160 -4 -291 -5
-292 -2 -2 -61 8 -132 22 -214 42 -354 54 -621 57 -139 2 -253 7 -253 11 0 5
21 77 46 160 106 350 122 438 145 812 6 99 12 200 14 225 3 25 7 81 10 125 3
44 9 103 15 130 17 87 31 436 19 478 -13 46 -69 112 -119 137 -19 10 -65 23
-100 29 -36 7 -87 16 -115 21 -27 5 -68 12 -90 15 -22 2 -89 11 -150 19 -60 9
-146 15 -191 16 -44 0 -85 5 -91 11 -6 6 -63 13 -127 16 l-116 6 0 79 0 79
203 -3 c166 -2 212 1 257 14 137 42 222 219 246 510 6 82 5 91 -20 140 -31 64
-82 102 -163 123 -75 18 -353 35 -585 35 -158 -1 -191 -4 -243 -21z m594
-1216 c-3 -18 2 -24 14 -16 6 4 15 8 20 9 4 1 8 2 10 4 1 1 10 3 20 5 14 3 16
0 7 -10 -6 -7 -19 -12 -28 -10 -19 3 -42 -12 -42 -27 0 -5 6 -6 13 -1 6 4 19
8 28 8 9 0 26 9 38 19 12 11 21 15 21 10 0 -5 5 -2 10 6 7 11 10 11 10 2 0 -8
5 -10 13 -5 20 13 35 12 41 -3 3 -8 0 -13 -6 -11 -10 2 -13 -15 -9 -55 1 -6 8
-3 16 8 11 14 14 15 15 4 0 -10 9 -4 25 15 22 26 24 27 22 9 -2 -12 -16 -38
-31 -59 -23 -29 -26 -39 -16 -48 10 -9 11 -9 6 0 -3 6 4 19 16 27 12 9 19 16
14 16 -5 0 -2 8 6 18 14 15 16 30 9 76 0 6 -8 1 -17 -10 -11 -13 -14 -14 -11
-3 3 9 -1 16 -8 16 -7 0 -11 -6 -9 -12 3 -7 -2 -18 -11 -25 -15 -12 -22 0 -7
14 4 4 7 13 7 19 0 18 105 16 115 -3 7 -13 10 -13 16 3 5 15 9 16 15 5 5 -7 2
-22 -7 -35 -14 -22 -9 -29 19 -24 5 1 6 -3 2 -9 -7 -12 5 -13 22 -2 13 8 2 34
-13 33 -12 -2 -14 38 -2 45 5 3 16 0 24 -7 12 -10 20 -10 34 -1 31 19 31 -2 0
-39 -37 -43 -39 -60 -3 -28 14 13 23 19 20 13 -7 -12 29 -33 54 -32 9 1 16 7
16 15 0 9 -4 10 -13 2 -22 -18 -38 1 -18 22 18 20 6 27 -13 8 -20 -20 -22 6
-2 30 l19 23 10 -26 c11 -29 26 -37 16 -8 -5 15 -5 15 8 -1 8 -10 17 -18 20
-18 9 1 41 -34 44 -47 1 -7 -3 -12 -9 -12 -5 0 -7 -5 -4 -10 4 -6 11 -8 16 -5
10 7 10 5 13 -43 1 -18 -2 -36 -8 -39 -5 -3 -6 -1 -3 4 4 6 0 13 -8 17 -18 6
-19 1 -4 -25 5 -11 15 -17 22 -13 9 5 9 4 0 -6 -6 -7 -9 -19 -6 -26 3 -8 -1
-14 -8 -14 -11 0 -11 -3 1 -10 10 -6 11 -10 2 -10 -14 0 -12 -21 3 -32 6 -5 5
-8 -2 -8 -7 0 -13 -5 -13 -11 0 -5 6 -7 13 -3 6 4 10 5 7 1 -3 -3 -8 -5 -12
-4 -9 3 -58 -45 -58 -56 0 -6 11 0 24 12 24 23 30 12 12 -18 -7 -11 -5 -13 9
-7 13 5 15 3 8 -6 -5 -7 -8 -25 -7 -40 3 -26 -4 -32 -23 -25 -5 1 -7 6 -5 11
2 5 -4 6 -11 3 -20 -7 -37 12 -29 32 5 14 3 14 -10 3 -14 -11 -16 -11 -14 0 3
22 17 39 27 33 5 -4 9 -2 9 3 0 19 -14 21 -32 5 -11 -9 -26 -18 -35 -19 -11
-2 -9 4 7 21 13 14 27 22 33 18 5 -3 8 0 5 8 -6 18 -43 18 -43 0 0 -8 -8 -15
-18 -17 -9 -1 -15 1 -13 5 3 4 -4 12 -15 19 -10 7 -19 8 -19 3 0 -6 5 -13 11
-16 7 -5 4 -13 -7 -26 -9 -10 -21 -16 -27 -12 -6 4 -8 0 -4 -10 6 -16 -6 -30
-31 -33 -10 -2 -10 2 2 15 25 28 19 37 -8 12 -23 -22 -31 -12 -13 17 5 6 4 12
-2 12 -5 0 -13 -5 -16 -10 -4 -6 -11 -8 -16 -5 -8 5 -13 -7 -11 -27 2 -12 -26
-29 -32 -20 -3 6 1 15 9 22 8 7 15 17 15 23 0 5 -9 2 -20 -8 -18 -16 -25 -14
-21 8 0 4 -3 8 -9 8 -5 1 -16 2 -22 3 -7 1 -12 9 -10 18 1 9 -3 20 -10 24 -7
4 -10 4 -6 -1 4 -4 3 -14 -2 -20 -12 -14 -2 -48 10 -40 5 3 13 -3 19 -12 6
-10 11 -14 11 -10 0 5 5 5 11 2 7 -5 4 -13 -7 -26 -9 -10 -21 -16 -27 -12 -6
4 -8 0 -4 -9 3 -9 -3 -24 -14 -34 -10 -9 -20 -14 -20 -11 -1 4 -3 12 -4 17 -1
6 -3 15 -4 21 -1 8 -5 8 -15 0 -13 -11 -15 -3 -7 27 1 1 12 -5 25 -13 21 -14
24 -14 30 1 5 12 2 15 -11 10 -10 -4 -14 -4 -10 0 4 4 2 13 -4 20 -7 8 -7 14
1 19 5 3 10 11 10 17 0 6 -9 3 -19 -6 -11 -10 -21 -13 -25 -7 -3 5 4 18 16 28
32 26 35 53 6 48 -21 -4 -21 -2 7 23 32 30 42 56 25 67 -6 4 -9 1 -8 -5 2 -7
-5 -14 -15 -15 -15 -3 -16 -1 -6 11 10 12 9 17 -1 27 -9 9 -11 9 -6 0 3 -6 1
-15 -5 -19 -7 -4 -9 -3 -6 3 4 6 -1 19 -9 29 -9 10 -13 14 -10 7 4 -6 1 -15
-5 -19 -8 -4 -9 -3 -5 4 4 7 2 12 -5 12 -6 0 -9 -8 -6 -19 3 -12 -3 -27 -12
-35 -23 -21 -36 -8 -15 15 11 12 14 24 8 36 -13 29 -12 52 1 63 10 8 15 7 21
-1 4 -7 3 -9 -4 -5 -6 3 -13 2 -17 -4 -6 -9 8 -14 28 -11 5 1 6 -3 2 -9 -6 -9
8 -14 28 -11 5 1 5 -4 1 -10 -5 -9 -2 -10 9 -6 11 4 22 -2 32 -16 8 -12 15
-18 15 -13 0 4 13 -6 30 -22 16 -17 38 -29 47 -27 19 3 19 23 1 40 -8 7 -9 6
-4 -2 3 -6 2 -14 -4 -18 -6 -3 -13 1 -16 9 -3 9 -10 13 -15 10 -17 -10 -9 3
13 22 12 10 18 13 14 6 -5 -9 -3 -12 6 -10 7 2 14 -1 15 -6 2 -15 27 -26 34
-14 9 14 0 40 -12 32 -12 -7 -62 44 -54 56 3 6 1 11 -4 11 -35 4 -45 3 -48 -8
-3 -8 4 -11 18 -8 l22 4 -23 -24 -23 -24 -27 19 c-15 11 -31 16 -35 12 -5 -4
-5 -1 -1 6 4 7 11 10 15 7 5 -2 16 4 26 15 19 21 7 28 -13 8 -7 -7 -12 -8 -12
-4 0 5 -8 2 -17 -5 -17 -13 -17 -13 0 7 19 23 45 27 66 10 11 -8 13 -8 9 3 -8
25 -54 32 -74 10 -9 -10 -21 -16 -26 -13 -5 3 -2 15 8 25 9 11 15 22 12 25 -8
8 -70 -74 -64 -85 4 -5 -5 -23 -20 -40 -24 -29 -26 -30 -50 -14 -24 15 -24 28
-1 28 7 1 11 7 9 14 -1 7 2 10 7 6 6 -3 8 -13 5 -23 -4 -11 2 -8 15 8 24 29
26 41 9 38 -8 -2 -12 5 -10 16 3 17 1 18 -11 7 -13 -10 -17 -9 -26 7 -8 15 -7
23 4 32 8 7 15 17 15 22 0 6 -7 4 -16 -3 -9 -7 -23 -14 -31 -15 -12 -2 -11 1
3 17 9 10 15 22 12 25 -3 3 -15 -7 -27 -22 -11 -15 -21 -21 -21 -15 0 7 -5 9
-12 5 -6 -4 -8 -3 -5 3 4 6 -1 14 -10 17 -12 5 -14 9 -5 18 17 17 15 27 -5 23
-10 -2 -18 -4 -18 -5 0 -1 -8 -3 -17 -5 -11 -2 -15 2 -11 12 4 11 8 11 13 3 5
-8 10 -9 14 -2 4 6 16 8 29 5 12 -3 32 -5 43 -6 15 -1 20 -6 17 -16 -3 -11 1
-9 12 4 9 11 20 20 25 20 5 0 15 6 22 13 13 13 29 16 27 5z m-615 -22 c-3 -4
-11 -6 -17 -6 -7 0 -11 -7 -11 -16 1 -9 -4 -16 -11 -16 -8 0 -14 38 -6 43 6 3
49 -2 45 -5z m23 -9 c0 -10 -6 -19 -13 -19 -9 0 -9 5 -1 19 7 10 13 18 14 18
1 0 1 -8 0 -18z m278 8 c4 -6 1 -9 -6 -8 -6 2 -13 -2 -16 -9 -5 -13 19 -12 38
3 12 9 28 10 70 5 5 0 7 -5 4 -11 -6 -10 3 -13 38 -13 10 0 16 -2 13 -4 -2 -3
-6 -3 -9 -1 -6 5 -37 -23 -37 -34 0 -6 7 -5 15 2 8 7 15 9 15 5 0 -4 8 -1 18
6 9 7 6 1 -7 -13 -13 -15 -28 -25 -32 -22 -15 9 -10 -9 10 -39 13 -21 21 -25
26 -16 5 7 1 17 -8 24 -15 11 -14 14 7 34 l25 23 12 -20 c11 -17 16 -19 29 -9
10 8 9 5 -2 -9 -22 -25 -24 -41 -3 -24 8 7 15 9 15 5 0 -4 7 -2 16 5 8 8 14 9
13 4 -4 -22 2 -35 14 -28 6 4 1 -5 -12 -19 -17 -19 -28 -24 -36 -17 -12 10
-25 4 -25 -12 0 -5 6 -6 13 -2 8 5 8 2 -2 -9 -9 -11 -10 -17 -2 -17 21 0 26 2
24 11 -4 14 3 11 18 -8 8 -10 9 -14 2 -10 -6 4 -14 3 -17 -2 -9 -14 20 -21 35
-8 10 9 10 8 -1 -6 -12 -16 -11 -17 19 -12 30 5 32 4 25 -17 -6 -20 -5 -21 9
-10 13 11 17 10 27 -8 6 -12 16 -18 23 -14 9 5 8 3 0 -7 -18 -18 -16 -34 2
-19 12 10 14 8 10 -9 -4 -22 9 -29 20 -11 4 6 11 8 16 4 5 -3 -5 -23 -22 -45
-17 -21 -35 -37 -40 -33 -5 3 -7 10 -4 15 4 5 1 9 -4 9 -14 0 -14 -23 -1 -36
8 -8 6 -15 -6 -24 -24 -21 -43 -20 -55 1 -5 11 -15 16 -21 13 -6 -4 -3 4 8 18
12 16 22 22 26 15 4 -6 4 -15 1 -20 -3 -5 0 -8 8 -5 8 3 16 13 17 23 3 12 0
15 -10 9 -10 -6 -10 -5 1 9 7 9 10 17 7 17 -4 0 -4 5 0 12 5 8 13 4 25 -11 21
-25 29 -28 40 -10 5 8 -3 21 -23 36 l-31 23 -16 -23 c-9 -12 -15 -25 -14 -28
1 -3 -4 -6 -11 -6 -15 0 -15 14 -3 35 5 6 5 17 2 22 -4 6 -1 9 6 8 6 -2 13 2
16 9 2 6 -3 10 -12 9 -18 -3 -36 -26 -29 -37 2 -4 -4 -14 -14 -21 -11 -7 -19
-15 -19 -18 1 -3 -4 -14 -11 -25 -10 -17 -14 -12 -11 11 0 4 -5 10 -12 15 -9
5 -23 -4 -43 -28 -29 -35 -30 -35 -45 -16 -9 10 -19 20 -23 21 -12 3 -10 17 2
18 6 1 13 3 18 4 4 1 11 2 16 1 5 -1 6 5 3 13 -6 16 26 50 36 39 4 -3 7 -2 7
3 0 14 -16 36 -26 36 -5 -1 -7 7 -6 16 3 13 1 14 -11 3 -10 -7 -18 -8 -21 -2
-4 5 -2 12 4 16 5 3 10 11 10 17 0 6 -9 3 -20 -7 -11 -10 -20 -14 -20 -9 0 5
-4 3 -9 -5 -10 -16 16 -44 31 -35 5 3 8 0 8 -5 0 -6 3 -10 8 -10 21 4 23 -3 7
-21 -17 -19 -41 -18 -30 1 6 8 -9 13 -28 10 -5 -1 -6 3 -2 9 6 10 -3 13 -37
13 -16 0 -16 1 0 22 9 13 18 19 20 14 2 -5 15 5 29 21 18 22 29 28 38 20 6 -5
15 -7 19 -3 4 4 4 -1 0 -11 -5 -14 -4 -17 4 -12 7 4 15 0 18 -9 5 -11 10 -13
19 -5 8 7 16 7 19 2 3 -6 -1 -15 -9 -22 -8 -7 -15 -17 -15 -23 0 -6 11 0 24
12 15 14 24 18 22 10 -3 -23 -17 -40 -27 -34 -11 7 -11 3 -3 -19 5 -12 11 -9
31 15 18 21 29 27 36 20 12 -12 37 3 37 21 0 6 -7 5 -15 -2 -12 -10 -16 -9
-21 4 -3 9 -10 13 -15 10 -5 -3 -12 1 -15 9 -2 7 -11 14 -19 15 -8 1 -21 3
-29 4 -8 1 -15 4 -14 7 2 22 -5 29 -22 26 -12 -2 -23 2 -26 10 -4 11 -12 7
-29 -14 -13 -15 -31 -28 -40 -28 -12 0 -11 5 6 23 12 13 26 21 30 18 11 -7 11
7 0 24 -6 10 -12 7 -25 -13 -9 -14 -21 -23 -26 -20 -5 3 -11 1 -15 -5 -4 -6
-11 -8 -16 -5 -5 4 -9 2 -9 -4 0 -6 9 -15 21 -21 20 -11 20 -13 3 -31 -9 -10
-21 -16 -26 -13 -6 4 -6 10 1 17 17 17 13 31 -4 17 -8 -7 -15 -9 -15 -4 -1 11
-30 -26 -30 -37 0 -4 9 -6 20 -4 12 2 23 -2 27 -10 3 -8 10 -12 17 -8 6 3 3
-3 -7 -14 -9 -11 -24 -20 -32 -20 -11 0 -12 4 -5 11 19 19 10 29 -11 10 -15
-14 -20 -15 -17 -4 2 8 -2 14 -9 13 -7 -2 -10 3 -7 11 4 10 0 14 -12 12 -10
-2 -20 -9 -22 -16 -3 -8 0 -10 9 -5 8 5 11 4 6 -1 -5 -5 -12 -9 -16 -9 -15 0
-56 -41 -60 -60 -3 -19 -2 -19 17 -2 11 10 23 14 26 9 3 -5 -1 -16 -10 -23
-18 -14 -44 -21 -43 -11 4 25 -2 34 -14 23 -8 -6 -16 -8 -19 -5 -3 2 -5 -7 -5
-21 0 -20 2 -23 12 -15 8 7 16 7 19 2 8 -13 -18 -34 -29 -24 -5 4 -5 -1 -2
-11 4 -10 3 -16 -2 -12 -5 3 -19 -7 -30 -21 -24 -30 -28 -53 -7 -35 10 8 16 8
25 -3 14 -16 4 -25 -21 -21 -10 2 -19 -1 -19 -6 -1 -5 -2 -15 -3 -21 -1 -17
-26 -17 -53 0 -13 8 -23 11 -23 7 0 -4 -6 -2 -13 4 -8 6 -17 8 -20 4 -4 -3 -7
-1 -7 6 0 7 -4 10 -9 7 -5 -4 -8 2 -7 11 2 10 7 16 12 13 5 -3 8 -8 6 -12 -1
-5 2 -9 8 -9 34 -5 44 -2 48 10 3 9 0 11 -9 6 -11 -6 -12 -5 -1 6 24 26 7 35
-28 14 -9 -5 -7 1 5 14 l20 23 17 -21 c10 -14 19 -17 23 -11 5 8 11 7 21 -1 9
-7 14 -8 14 -1 0 6 -5 14 -10 17 -6 4 -8 11 -4 16 3 5 9 7 14 4 5 -3 11 -1 15
5 4 6 10 8 14 5 5 -2 9 7 9 20 0 19 -4 23 -13 15 -6 -5 -15 -7 -18 -3 -9 8 13
34 23 28 4 -3 8 7 8 20 0 20 -3 23 -13 15 -9 -8 -15 -8 -20 0 -3 6 -11 8 -16
5 -5 -4 -6 2 -2 12 6 16 5 16 -10 4 -9 -7 -17 -11 -17 -7 0 3 0 9 0 14 0 4 4
7 9 7 5 0 13 3 17 7 12 12 24 -2 17 -20 -5 -13 -4 -15 8 -6 22 16 44 11 41
-10 -2 -13 0 -16 10 -10 7 5 17 9 22 9 5 0 11 6 14 14 3 8 0 11 -7 7 -7 -5 -9
-1 -4 11 6 16 5 16 -10 5 -13 -12 -18 -11 -29 7 -9 15 -15 17 -25 9 -7 -6 -13
-8 -13 -4 0 3 0 9 0 14 0 4 5 8 10 8 6 1 11 2 13 4 1 1 10 3 21 5 14 3 16 1 7
-8 -19 -19 -12 -31 8 -13 13 12 21 14 26 6 3 -5 12 -7 18 -4 8 5 8 3 0 -7 -21
-22 -15 -34 7 -14 11 10 20 15 20 10 0 -4 9 4 20 18 24 30 26 45 5 27 -8 -7
-15 -9 -15 -6 0 4 -6 4 -12 -1 -22 -13 -39 -12 -44 2 -3 7 -14 12 -24 10 -14
-3 -17 1 -13 13 3 10 -3 7 -16 -8 -14 -17 -19 -19 -15 -7 4 12 2 17 -7 15 -9
-2 -13 4 -11 16 2 13 0 16 -10 10 -27 -17 -41 -13 -23 6 21 23 51 19 47 -6 -2
-18 -2 -18 13 0 9 12 15 15 15 7 0 -10 3 -11 14 -2 9 8 16 8 20 2 4 -5 2 -12
-4 -16 -5 -3 -10 -11 -10 -17 0 -6 8 -4 18 5 10 10 22 14 25 10 10 -10 8 10
-3 27 -5 8 -10 11 -10 5 0 -5 -7 -2 -14 8 -17 22 -26 23 -37 5 -7 -10 -9 -10
-9 0 0 7 -4 10 -10 7 -5 -3 -7 0 -4 8 3 8 0 18 -6 22 -6 3 -9 1 -8 -5 2 -7 -5
-14 -16 -15 -14 -3 -16 -1 -7 8 16 16 14 26 -6 22 -10 -2 -19 -4 -20 -5 -2 -2
-7 -4 -13 -5 -5 -1 -13 -4 -17 -5 -5 -1 -12 -2 -17 -1 -5 1 -6 -5 -2 -14 3 -9
2 -13 -3 -10 -5 3 -12 1 -16 -5 -4 -6 -10 -8 -15 -5 -5 3 -11 1 -15 -4 -3 -5
-14 -8 -25 -6 -21 4 -45 -26 -32 -40 4 -5 2 -5 -5 -1 -6 3 -14 2 -17 -3 -3 -5
-19 -7 -36 -6 -31 3 -37 -4 -20 -21 8 -8 3 -11 -14 -10 -14 1 -31 7 -38 14 -9
9 -7 11 9 7 13 -2 24 3 27 12 4 9 9 13 13 10 3 -4 12 -2 20 4 7 6 13 8 13 4 0
-4 7 -2 15 5 8 7 15 9 15 4 0 -4 6 1 14 12 8 10 19 20 25 20 6 1 13 3 16 4 3
1 14 3 24 4 11 0 29 13 40 28 24 31 28 46 6 28 -8 -7 -15 -9 -15 -4 0 5 -7 0
-15 -10 -9 -12 -15 -15 -15 -7 0 10 -3 11 -14 2 -10 -8 -16 -9 -21 -1 -3 6
-12 7 -18 3 -16 -10 -41 -13 -32 -5 4 4 11 8 16 8 5 1 11 3 14 4 3 1 14 4 25
5 11 1 22 4 25 5 3 1 14 4 25 5 11 1 21 3 23 5 11 9 35 6 31 -4 -3 -9 4 -12
23 -10 15 1 28 3 28 4 0 1 8 3 17 5 10 2 15 -2 12 -10 -7 -18 25 -13 37 6 7
11 9 11 9 1 0 -7 4 -10 10 -7 5 3 7 0 4 -9 -4 -11 0 -14 16 -11 21 4 21 3 6
-14 -19 -21 -21 -35 -3 -24 6 4 15 8 20 9 4 1 8 2 10 4 7 5 38 7 32 2 -4 -4
-10 -6 -13 -5 -10 2 -32 -18 -32 -29 0 -6 7 -5 15 2 8 7 15 9 15 6 0 -4 6 -4
13 1 16 10 41 14 32 5 -4 -4 -11 -8 -16 -8 -5 -1 -11 -3 -14 -4 -3 -1 -11 -3
-17 -4 -7 -1 -12 -9 -12 -18 1 -10 -1 -16 -5 -15 -7 2 -11 -7 -11 -25 0 -7 6
-5 18 4 9 9 25 14 35 13 11 -2 16 2 14 8 -3 7 -10 11 -16 9 -7 -1 -9 2 -6 8 4
6 10 9 13 6 3 -3 14 1 24 11 10 9 18 13 18 8 0 -4 9 4 20 18 24 30 26 45 4 26
-30 -25 -48 -20 -23 7 15 16 26 21 34 14 12 -10 25 -4 25 12 0 5 -5 6 -10 3
-6 -3 -13 1 -16 9 -3 9 -10 13 -15 10 -5 -3 -12 2 -15 11 -5 12 -9 13 -21 4
-8 -7 -13 -8 -12 -3 5 27 -1 36 -15 24 -13 -10 -14 -7 -10 17 4 27 3 27 -11 9
-8 -11 -15 -14 -15 -7 0 7 -5 9 -12 4 -22 -13 -42 -13 -29 0 15 15 14 30 -1
20 -18 -11 -58 -12 -58 -1 0 5 -4 7 -8 4 -5 -3 -9 1 -9 9 0 11 4 11 22 -1 12
-8 25 -11 29 -7 4 5 12 9 17 9 5 1 10 3 12 4 1 1 14 3 29 4 18 2 25 -1 21 -10
-6 -16 20 -13 41 5 9 7 16 11 16 7 0 -3 0 -9 0 -13 0 -5 -5 -8 -12 -8 -6 0
-13 -5 -15 -12 -5 -13 14 -12 37 2 11 6 10 3 -2 -12 -22 -25 -23 -40 -2 -22
22 18 64 20 57 3 -3 -9 2 -12 17 -9 12 2 23 -2 27 -10 3 -8 10 -12 16 -8 6 3
7 1 3 -6 -4 -6 -11 -9 -16 -6 -5 3 -11 1 -14 -4 -13 -20 24 -19 39 2 18 26 20
41 3 31 -7 -4 -4 2 6 15 16 18 17 24 6 34 -9 8 -11 9 -6 0 6 -12 -9 -26 -32
-29 -7 -2 -15 3 -18 11 -3 7 -18 11 -34 10 -22 -2 -27 1 -22 13 4 11 2 13 -8
7 -9 -5 -11 -4 -6 4 4 6 11 9 16 6 5 -3 11 -1 15 5 8 13 12 13 20 0z m-735
-47 c0 -35 -3 -44 -11 -36 -7 7 -9 25 -5 47 9 50 16 45 16 -11z m334 28 c-7
-8 -54 -9 -49 -1 2 3 15 6 29 6 14 0 23 -2 20 -5z m-64 -7 c0 -8 -19 -13 -24
-6 -3 5 1 9 9 9 8 0 15 -2 15 -3z m-56 -13 c-3 -3 -10 -7 -15 -7 -5 -1 -10 -2
-11 -4 -10 -7 -37 -6 -32 1 3 5 9 7 14 4 5 -3 11 -2 14 3 3 5 12 9 21 9 8 0
12 -3 9 -6z m50 -20 c-3 -4 -14 -7 -25 -7 -10 -1 -21 -3 -24 -4 -3 -1 -9 -4
-15 -5 -5 -1 -11 -4 -12 -5 -8 -6 -57 -6 -52 1 2 4 13 6 24 4 11 -2 22 1 25 6
4 5 10 7 15 4 5 -3 11 -2 14 3 2 4 16 8 30 8 14 0 23 -2 20 -5z m149 -7 c-3
-8 2 -11 14 -9 10 2 19 4 21 5 1 2 7 4 12 5 6 1 11 3 13 5 7 5 38 7 32 2 -4
-4 -12 -7 -17 -7 -6 0 -13 -5 -15 -12 -2 -6 3 -10 14 -8 10 2 18 4 18 5 0 1
12 3 28 4 15 2 25 0 21 -3 -3 -3 -7 -4 -8 -1 -2 3 -11 -2 -21 -10 -18 -15 -68
-23 -59 -8 3 4 0 9 -5 9 -6 1 -17 2 -23 3 -7 1 -17 0 -23 -3 -5 -3 -16 -6 -24
-8 -10 -1 -11 1 -2 10 15 15 14 30 -1 20 -7 -4 -20 -8 -29 -8 -9 0 -23 -6 -32
-13 -10 -9 -17 -10 -22 -2 -3 6 -12 7 -18 3 -7 -4 -20 -8 -29 -9 -10 -1 -19
-2 -20 -4 -2 -1 -11 -3 -21 -5 -14 -3 -16 0 -7 10 6 8 20 12 30 10 11 -2 22 0
25 5 3 5 14 7 25 5 11 -2 22 0 25 5 3 5 14 7 25 5 11 -2 22 0 24 4 8 13 54 8
49 -5z m191 -21 c4 -10 4 -14 0 -10 -8 8 -34 -11 -34 -25 0 -6 7 -5 15 2 8 7
15 9 15 4 0 -5 7 -1 14 9 14 18 14 18 21 -2 3 -11 10 -20 15 -18 4 1 8 -2 9
-8 1 -5 -3 -11 -9 -11 -5 -1 -11 -2 -12 -4 -9 -6 -39 -7 -43 0 -2 4 3 7 13 6
17 -1 22 5 22 25 0 6 -5 7 -12 2 -7 -4 -16 -8 -20 -9 -5 -1 -9 -2 -10 -4 -2
-1 -11 -3 -20 -5 -12 -2 -15 2 -11 13 4 10 2 13 -5 8 -6 -3 -14 -1 -18 5 -4 7
-3 9 3 6 6 -4 16 0 23 8 7 8 16 12 21 9 5 -3 9 0 9 5 0 16 7 13 14 -6z m-349
-33 c4 -6 3 -10 -2 -9 -4 1 -10 0 -13 -1 -19 -7 -39 -7 -34 1 3 5 9 7 14 4 5
-3 11 -1 15 5 8 13 12 13 20 0z m-75 -13 c0 -4 0 -13 0 -19 0 -10 -2 -10 -9 0
-11 19 -19 17 -42 -10 l-20 -23 11 23 c6 12 8 22 5 22 -4 0 -4 4 -1 8 6 11 56
9 56 -1z m84 -47 c-3 -3 -10 -6 -15 -6 -5 -1 -11 -3 -14 -4 -3 -1 -14 -4 -25
-5 -11 -1 -21 -3 -22 -5 -10 -7 -39 -7 -44 1 -3 5 -10 6 -16 3 -6 -4 -8 -2 -4
4 3 6 15 9 26 7 11 -2 22 -1 24 3 2 4 25 8 50 8 25 0 43 -3 40 -6z m982 -2
c-3 -22 -17 -39 -27 -32 -6 4 -3 14 7 25 20 22 23 23 20 7z m-822 -17 c-3 -4
-7 -4 -8 -1 -2 3 -11 -2 -21 -10 -20 -17 -63 -21 -72 -7 -3 6 -1 7 5 3 6 -3
13 -2 17 4 4 6 10 8 15 5 5 -3 11 -2 14 3 2 4 16 8 30 8 14 0 23 -2 20 -5z
m647 -24 c-6 -6 -18 -12 -27 -13 -14 -2 -14 0 1 17 10 10 22 16 27 13 6 -4 6
-10 -1 -17z m-928 -2 c-4 -14 -30 -14 -30 0 0 7 7 12 16 10 9 -1 15 -6 14 -10z
m171 -36 c-13 -14 -20 -16 -30 -8 -15 12 -9 33 6 24 5 -3 11 -1 15 5 4 6 11 8
16 4 6 -4 3 -14 -7 -25z m104 -6 c4 -5 15 -9 25 -7 14 2 16 -1 7 -11 -16 -19
-46 -12 -42 11 3 14 1 16 -11 6 -7 -6 -16 -9 -19 -7 -3 3 -13 -6 -22 -20 -9
-14 -21 -23 -26 -20 -5 3 -11 1 -14 -4 -8 -12 -42 -7 -38 5 1 5 5 9 10 9 4 0
12 3 17 6 6 4 18 5 28 4 11 -2 17 2 15 13 -2 9 2 17 9 17 6 0 14 3 18 7 9 9
35 4 43 -9z m707 -3 c-8 -9 -22 -17 -30 -17 -13 0 -13 2 0 17 8 9 22 17 30 17
13 0 13 -2 0 -17z m30 -20 c-8 -9 -22 -17 -30 -17 -13 0 -13 2 0 17 8 9 22 17
30 17 13 0 13 -2 0 -17z m-892 -6 c-3 -9 -23 -13 -36 -6 -4 2 -5 7 -2 12 7 11
41 6 38 -6z m138 -18 c-1 -3 -4 -6 -8 -7 -5 0 -14 -6 -22 -12 -18 -15 -40 -17
-48 -5 -3 6 -1 8 4 5 6 -4 16 0 23 8 7 8 16 13 20 10 5 -3 12 0 15 6 7 10 18
7 16 -5z m-194 -22 c0 -13 -43 -12 -57 2 -6 6 1 10 23 10 19 0 34 -5 34 -12z
m64 -17 c-6 -6 -22 -12 -36 -13 -20 -1 -23 2 -14 12 6 8 15 12 19 9 5 -3 11
-1 15 5 4 6 11 7 17 4 6 -4 6 -10 -1 -17z m369 -2 c-12 -15 -41 -14 -40 1 0 5
4 9 9 9 5 0 13 3 17 7 12 13 26 -3 14 -17z m140 11 c-6 -6 -16 -11 -22 -11 -6
0 -13 -5 -15 -12 -5 -13 15 -12 37 2 22 14 39 15 47 2 3 -7 3 -9 -2 -5 -4 4
-15 2 -23 -5 -8 -6 -24 -12 -35 -12 -11 0 -22 -6 -25 -14 -3 -8 0 -11 5 -8 5
3 10 0 10 -7 0 -8 -7 -13 -16 -11 -9 1 -15 10 -13 21 2 18 2 18 -13 0 -8 -11
-15 -14 -15 -8 0 7 0 15 0 20 0 4 5 7 10 7 14 0 30 27 23 39 -3 5 -1 6 5 2 6
-3 13 -3 16 2 3 5 12 9 21 9 11 0 13 -3 5 -11z m-590 -31 c0 4 6 2 13 -4 8 -6
18 -7 23 -3 4 4 3 0 -4 -10 -14 -18 -49 -17 -44 1 2 10 -10 15 -29 13 -3 -1
-6 5 -6 13 0 11 5 10 24 -2 13 -8 23 -12 23 -8z m145 2 c11 -15 14 -16 25 -2
9 11 16 12 25 5 6 -5 15 -7 19 -3 4 4 4 -1 0 -11 -6 -15 -4 -17 7 -10 22 13
36 13 36 -2 0 -7 -3 -13 -6 -12 -3 0 -8 -1 -11 -2 -19 -7 -39 -7 -34 1 3 5 0
10 -5 10 -36 4 -45 3 -49 -10 -3 -9 0 -11 9 -6 8 5 11 4 6 -1 -5 -5 -13 -10
-18 -10 -5 -1 -10 -2 -11 -4 -10 -8 -39 -6 -45 2 -3 6 -1 8 5 4 6 -3 13 -2 17
4 4 6 10 8 14 5 5 -2 9 6 9 19 0 20 -5 23 -29 21 -23 -2 -27 0 -19 10 14 17
39 13 55 -8z m348 -14 c-3 -8 -9 -10 -12 -5 -3 5 -14 8 -24 6 -18 -2 -18 -2
-1 17 12 14 20 16 30 8 7 -6 10 -17 7 -26z m760 -16 c-10 -11 -12 -17 -6 -13
7 4 22 9 34 11 18 4 19 2 7 -12 -11 -14 -11 -16 4 -10 9 3 22 -1 28 -9 12 -14
11 -15 -10 -18 -13 -1 -30 -28 -24 -37 2 -4 -7 -16 -21 -27 -15 -12 -21 -23
-16 -27 14 -8 53 13 46 25 -3 5 -1 11 4 14 5 4 13 1 16 -5 5 -7 17 -1 35 16
15 15 31 22 34 17 3 -5 -1 -15 -9 -22 -8 -7 -12 -16 -9 -21 3 -5 2 -9 -3 -8
-20 3 -34 -2 -28 -11 4 -6 12 -7 18 -4 8 5 8 3 0 -7 -17 -18 -17 -34 0 -20 18
14 30 2 16 -16 -14 -16 2 -18 18 -2 9 9 11 7 9 -5 -1 -9 -8 -22 -16 -29 -10
-9 -11 -9 -6 1 7 11 -5 17 -27 13 -5 -1 -6 3 -2 8 6 10 -34 37 -48 33 -5 -1
-6 2 -2 8 3 6 10 8 15 5 5 -3 11 -1 14 4 9 14 -18 20 -35 7 -8 -6 -14 -18 -14
-26 2 -28 -6 -30 -37 -8 l-31 21 27 24 c15 13 24 23 20 23 -3 0 -1 7 6 15 8 9
9 15 2 15 -6 0 -14 -5 -17 -10 -4 -6 -11 -8 -16 -4 -5 3 -7 9 -4 14 3 4 -2 11
-11 14 -11 4 -15 2 -11 -8 3 -8 -3 -22 -14 -32 -17 -15 -24 -13 -20 9 1 4 -7
7 -16 5 -10 -2 -18 3 -19 10 -1 6 -2 17 -3 22 0 6 -4 9 -8 9 -20 -3 -24 2 -13
16 14 16 34 10 24 -7 -5 -7 -1 -9 9 -5 8 3 21 0 27 -8 10 -12 8 -13 -12 -10
-22 4 -22 4 -3 -11 18 -13 21 -12 37 8 9 12 16 27 15 33 -1 5 4 9 11 8 6 -2
13 2 13 7 3 20 4 25 12 38 5 7 13 10 18 6 6 -4 3 -14 -8 -27z m-818 -16 c-1
-9 -9 -16 -18 -16 -22 0 -23 5 -6 32 14 23 29 14 24 -16z m-328 15 c4 -4 4 -7
-2 -6 -5 1 -12 1 -15 0 -3 -1 -17 -3 -32 -4 -21 -2 -25 0 -18 9 11 13 54 14
67 1z m692 -12 c-6 -7 -15 -11 -21 -8 -5 3 -4 12 3 20 6 7 15 11 21 8 5 -3 4
-12 -3 -20z m-813 -11 c-10 -11 -19 -7 -22 10 -2 15 0 16 12 6 8 -6 12 -14 10
-16z m743 0 c-12 -15 -12 -16 3 -10 10 3 20 2 23 -4 4 -5 12 -6 18 -3 7 4 8 3
4 -2 -5 -5 -14 -9 -20 -9 -7 -1 -11 -7 -9 -15 1 -10 -4 -7 -16 6 -10 11 -26
20 -35 18 -15 -2 -16 0 -6 12 6 7 15 12 19 9 5 -3 11 -1 15 5 3 5 9 10 12 10
3 0 -1 -8 -8 -17z m208 -11 c-24 -28 -7 -103 18 -82 10 8 13 8 11 -2 -4 -27
-17 -39 -30 -29 -7 6 -16 9 -20 6 -3 -3 -2 1 4 7 15 18 12 32 -4 18 -13 -10
-14 -7 -10 14 2 13 -1 28 -7 32 -7 4 -9 3 -6 -3 4 -6 0 -16 -7 -22 -9 -8 -16
-8 -20 -2 -3 5 6 19 20 30 15 12 23 21 19 21 -5 0 0 9 10 20 10 11 22 17 27
14 5 -3 3 -13 -5 -22z m-891 6 c4 4 2 -1 -5 -11 -8 -9 -16 -15 -19 -13 -2 3
-12 -4 -22 -16 -13 -17 -17 -18 -17 -5 0 9 5 13 10 10 6 -4 8 0 4 9 -7 21 13
41 28 28 7 -5 16 -6 21 -2z m446 -14 c-3 -15 -1 -16 11 -5 9 7 18 8 21 3 3 -6
0 -14 -7 -20 -26 -21 -87 9 -67 33 16 19 46 11 42 -11z m112 5 c-9 -10 -21
-16 -26 -13 -12 8 8 31 27 31 13 0 13 -3 -1 -18z m-396 -7 c2 -7 9 -9 15 -5
19 12 36 12 44 1 3 -6 1 -8 -4 -5 -6 4 -16 1 -22 -7 -13 -15 -38 -15 -49 0
-10 13 -32 16 -33 4 -1 -5 -2 -15 -3 -22 -1 -15 -54 -19 -63 -5 -3 6 -1 7 5 3
6 -3 13 -2 16 3 3 5 -1 11 -9 15 -8 3 -17 1 -20 -4 -7 -11 -41 -6 -37 6 3 14
44 12 68 -2 21 -13 34 -10 34 8 0 5 -5 6 -12 2 -7 -4 -8 -3 -4 5 4 6 11 9 16
6 5 -3 11 -1 14 4 8 12 39 7 44 -7z m188 -4 c4 4 3 0 -4 -10 -11 -14 -20 -15
-51 -9 -2 1 2 8 9 16 9 11 16 12 25 5 6 -5 16 -6 21 -2z m247 -1 c-4 -6 0 -8
10 -4 9 3 19 2 22 -4 4 -5 12 -6 18 -2 7 3 4 -3 -6 -14 -16 -19 -52 -29 -41
-11 3 4 0 9 -5 9 -6 1 -15 3 -21 4 -5 1 -13 3 -16 4 -4 0 -1 7 5 14 12 16 43
19 34 4z m423 0 c-1 -8 -10 -27 -20 -42 -15 -22 -15 -27 -3 -22 18 7 56 -18
53 -35 -3 -22 -17 -39 -27 -32 -5 3 -7 10 -3 15 3 6 -2 9 -12 7 -10 -2 -19 3
-20 10 -1 6 -2 18 -3 25 -1 6 -12 -1 -24 -17 -13 -16 -32 -31 -41 -32 -17 -2
-17 -1 -1 17 10 10 22 16 28 12 6 -4 8 0 4 9 -6 18 25 52 38 41 4 -5 5 -1 3 7
-3 8 1 23 10 33 18 21 21 21 18 4z m278 -28 c-9 -10 -21 -16 -26 -13 -5 3 -2
14 8 25 9 10 21 16 26 13 5 -3 2 -14 -8 -25z m-906 12 c-2 -25 3 -33 16 -22
10 9 16 8 26 -4 8 -9 9 -15 4 -14 -5 1 -11 0 -14 -1 -19 -7 -39 -7 -34 1 3 5
0 10 -5 10 -6 1 -15 3 -21 4 -5 1 -13 3 -16 4 -4 0 -1 7 5 14 11 13 40 19 39
8z m139 -5 c4 -4 1 -6 -7 -4 -8 2 -14 -3 -15 -9 0 -7 -3 -12 -7 -10 -3 1 -16
-10 -28 -26 -12 -15 -26 -24 -31 -21 -6 4 -6 11 2 20 6 7 16 11 21 7 6 -3 8 0
6 8 -11 30 37 58 59 35z m231 5 c-2 -19 3 -31 11 -27 5 4 8 -1 7 -11 -2 -9
-10 -17 -18 -19 -12 -1 -15 4 -12 23 4 18 1 23 -8 17 -26 -17 -41 -13 -24 5
15 17 46 25 44 12z m291 -17 c-8 -10 -8 -14 0 -14 6 0 12 1 14 2 8 5 45 -24
43 -34 -3 -22 -17 -39 -27 -32 -6 4 -3 14 7 25 18 20 6 27 -13 8 -8 -8 -15 -4
-27 12 -9 13 -16 20 -16 16 0 -5 -5 -5 -11 -2 -7 5 -4 13 7 26 19 21 41 15 23
-7z m-381 9 c-4 -19 15 -41 33 -38 10 2 21 -1 25 -6 3 -5 2 -9 -3 -8 -4 1 -10
0 -13 -1 -19 -7 -39 -7 -34 1 5 9 -4 12 -39 12 -16 0 -16 2 4 23 24 25 30 29
27 17z m-673 -15 c3 -3 -1 -11 -10 -18 -8 -7 -15 -11 -16 -9 -6 31 -5 37 7 35
7 -1 16 -5 19 -8z m299 -9 c-3 -6 5 -8 20 -5 33 6 41 -7 17 -28 -18 -16 -20
-16 -35 6 -9 12 -16 19 -16 15 0 -5 -5 -5 -10 -2 -8 5 -7 11 1 21 12 15 33 9
23 -7z m256 -4 c-5 -7 -7 -14 -4 -18 5 -5 -4 -4 -35 2 -10 2 21 28 34 28 10 0
12 -4 5 -12z m-597 -10 c4 -8 3 -16 -1 -19 -4 -3 -9 4 -9 15 -2 23 3 25 10 4z
m85 -15 c-7 -11 -13 -18 -13 -17 0 1 -7 11 -15 21 -8 11 -10 17 -3 13 6 -4 14
-3 18 3 4 6 10 8 15 5 6 -4 4 -14 -2 -25z m1136 21 c3 -4 -3 -16 -13 -25 -14
-13 -18 -14 -18 -2 0 8 5 14 11 13 6 -1 10 4 9 11 -3 14 3 16 11 3z m183 -8
c-4 -27 -17 -44 -28 -37 -6 4 -6 10 0 18 6 7 7 17 3 21 -4 5 -1 5 6 1 6 -4 12
-2 12 3 0 6 2 11 5 11 3 0 4 -8 2 -17z m-758 -10 c-6 -7 -14 -12 -17 -11 -14
2 -42 -14 -37 -22 3 -4 -2 -13 -9 -19 -8 -7 -16 -8 -19 -4 -7 11 14 38 36 46
10 4 16 10 13 15 -2 4 6 8 19 8 18 0 22 -3 14 -13z m206 0 c-2 -10 -4 -19 -4
-21 -1 -2 -6 0 -11 3 -8 5 -7 11 1 21 15 18 18 18 14 -3z m-748 -18 c0 -8 -4
-12 -9 -9 -5 3 -6 10 -3 15 9 13 12 11 12 -6z m326 -7 c-12 -14 -19 -15 -29
-7 -19 15 -10 25 20 25 24 0 24 -1 9 -18z m41 -5 c3 -14 -2 -19 -19 -19 -22 0
-22 1 -6 22 18 25 20 25 25 -3z m89 14 c-2 -4 -5 -6 -6 -4 -2 1 -11 -4 -19
-10 -18 -15 -32 -5 -17 13 10 12 46 13 42 1z m106 -13 c-6 -7 -15 -11 -21 -8
-5 3 -4 12 3 20 6 7 15 11 21 8 5 -3 4 -12 -3 -20z m-615 7 c-8 -8 -34 -10
-38 -2 -3 4 6 7 19 7 14 0 22 -2 19 -5z m316 -27 c0 4 5 4 10 1 8 -5 7 -11 -1
-21 -15 -19 -40 1 -32 24 6 14 4 15 -9 5 -19 -16 -32 -5 -16 15 10 12 15 11
30 -8 10 -12 18 -19 18 -16z m420 33 c0 -2 -8 -11 -18 -20 -15 -14 -19 -15
-19 -2 0 8 4 12 8 9 4 -2 10 0 14 6 6 10 15 14 15 7z m98 -14 c-9 -11 -7 -13
14 -9 20 3 25 0 24 -12 -4 -21 -34 -24 -46 -4 -5 10 -10 13 -10 9 0 -5 -5 -5
-10 -2 -14 9 4 32 25 32 11 0 12 -3 3 -14z m297 -11 c2 -13 -1 -19 -11 -18
-15 2 -16 9 -6 34 6 16 11 11 17 -16z m-486 -8 c-6 -7 -15 -11 -21 -8 -5 3 -4
12 3 20 6 7 15 11 21 8 5 -3 4 -12 -3 -20z m-605 -5 c-3 -5 -10 -7 -15 -3 -5
3 -7 10 -3 15 3 5 10 7 15 3 5 -3 7 -10 3 -15z m721 4 c-2 -10 -4 -19 -4 -21
-1 -2 -6 0 -11 3 -8 5 -7 11 1 21 15 18 18 18 14 -3z m210 -4 c-4 -5 -1 -10 4
-10 6 -1 16 -3 21 -4 6 -1 13 -3 16 -4 4 0 1 -8 -6 -16 -12 -14 -9 -15 21 -10
19 3 29 2 22 -3 -8 -5 -9 -13 -3 -22 6 -8 10 -10 10 -5 0 6 7 1 15 -9 8 -11
15 -16 15 -12 0 4 5 4 11 1 7 -5 4 -14 -7 -26 -16 -17 -7 -28 10 -12 12 12 34
12 32 -1 -3 -20 -17 -36 -27 -31 -8 5 -13 -9 -6 -18 1 -2 -4 -11 -12 -20 -13
-17 -36 -13 -26 4 4 5 1 9 -4 9 -6 0 -11 -5 -11 -12 0 -17 -11 -3 -15 19 -1
10 8 33 22 51 l25 33 -25 -5 c-22 -4 -25 -1 -21 21 4 18 1 23 -8 17 -23 -15
-37 -13 -31 4 4 10 2 13 -5 8 -6 -3 -13 -2 -16 3 -4 5 -1 13 5 17 8 5 7 9 -2
15 -7 4 -19 3 -25 -2 -9 -7 -12 -6 -10 3 3 22 17 39 27 32 5 -3 7 -10 4 -15z
m-492 -2 c4 3 7 1 7 -6 0 -7 4 -10 9 -7 11 7 9 -13 -2 -32 -5 -7 -13 -10 -18
-6 -6 4 -6 11 1 19 10 12 5 13 -25 11 -35 -4 -36 -3 -19 15 12 13 21 16 29 9
6 -5 15 -7 18 -3z m588 -10 c-6 -6 -18 -12 -27 -13 -14 -2 -14 0 1 17 10 10
22 16 27 13 6 -4 6 -10 -1 -17z m-967 1 c-5 -8 5 -11 39 -11 10 0 16 -2 13 -4
-2 -3 -6 -3 -9 -1 -2 2 -11 -3 -20 -11 -14 -11 -18 -11 -23 2 -3 9 -13 14 -23
12 -10 -2 -18 2 -18 9 0 7 11 12 23 12 12 0 20 -4 18 -8z m142 -14 c2 -11 -1
-12 -10 -5 -7 6 -17 7 -22 3 -4 -4 -2 1 5 11 15 19 24 16 27 -9z m337 4 c-17
-19 -26 -17 -29 5 -1 8 9 13 22 13 22 0 22 -1 7 -18z m106 -4 c-10 -13 -8 -14
13 -10 25 4 27 1 19 -32 -1 -2 -15 6 -31 18 -25 17 -28 25 -19 36 6 8 15 11
21 8 5 -3 4 -12 -3 -20z m480 0 c-6 -7 -16 -11 -22 -7 -6 4 -8 0 -4 -9 6 -17
-25 -53 -36 -42 -9 10 53 85 64 78 6 -3 5 -11 -2 -20z m85 -5 c-9 -10 -12 -19
-6 -19 6 0 14 5 17 10 5 8 11 8 19 1 7 -6 16 -8 20 -4 4 4 4 -1 0 -11 -5 -13
-4 -17 3 -13 12 8 12 -11 0 -30 -10 -16 5 -17 20 -2 15 15 12 -7 -5 -37 -6
-12 -9 -24 -6 -26 2 -3 -3 -11 -13 -19 -9 -8 -14 -9 -10 -3 4 7 -4 19 -19 29
-20 13 -23 19 -14 31 12 14 35 9 25 -6 -3 -4 1 -10 9 -13 8 -3 17 0 20 8 3 8
0 15 -7 18 -7 2 -13 13 -13 25 -3 40 -4 43 -14 37 -6 -4 -7 -11 -4 -17 4 -6 2
-8 -3 -5 -10 6 -25 -14 -27 -35 -2 -16 -19 -12 -22 5 -1 9 2 15 6 12 5 -3 13
3 19 13 7 14 5 21 -11 31 -19 12 -19 13 -3 31 10 11 22 17 27 14 5 -3 2 -15
-8 -25z m-1239 2 c-2 -15 -21 -22 -38 -13 -11 6 10 29 27 29 7 0 13 -7 11 -16z
m374 10 c2 -1 -2 -8 -9 -16 -7 -8 -16 -12 -21 -9 -5 3 -10 0 -10 -5 -1 -6 -2
-17 -3 -23 0 -7 -8 -13 -16 -14 -25 -1 -32 7 -19 22 6 7 16 11 22 7 6 -4 8 0
4 9 -3 9 -1 20 5 26 8 8 17 9 47 3z m235 -27 c-3 -19 -1 -24 8 -18 33 21 36 9
7 -27 -29 -37 -42 -42 -45 -18 -1 5 -2 13 -3 18 0 5 -15 7 -31 6 -17 -1 -29
-1 -26 2 2 3 6 3 9 1 2 -1 11 3 20 10 13 11 17 10 29 -5 13 -19 38 -29 38 -15
-1 10 -30 48 -30 38 0 -4 -5 -4 -11 -1 -7 5 -4 13 7 26 21 24 34 16 28 -17z
m183 20 c0 -10 -10 -11 -35 -5 -2 1 -1 5 2 9 8 13 33 10 33 -4z m84 -16 c-13
-10 -20 -18 -16 -18 5 0 0 -9 -10 -20 -32 -36 -36 -9 -4 31 17 21 36 36 42 32
6 -4 2 -13 -12 -25z m213 -9 c-26 -29 -42 -6 -20 29 6 10 11 10 22 1 13 -10
12 -14 -2 -30z m92 19 c-3 -22 -17 -39 -27 -32 -6 4 -3 14 7 25 20 22 23 23
20 7z m-1135 -15 c8 -10 9 -14 2 -10 -6 4 -14 3 -18 -3 -4 -6 -11 -8 -16 -4
-6 4 -6 11 2 20 14 17 14 18 30 -3z m248 8 c2 -1 -2 -8 -9 -16 -10 -12 -16
-13 -26 -4 -8 6 -12 15 -9 19 4 7 13 7 44 1z m125 -6 c3 3 2 -1 -4 -7 -14 -17
-12 -31 3 -21 20 12 34 12 34 -3 0 -7 -3 -11 -6 -9 -4 2 -15 -3 -26 -11 -10
-8 -15 -14 -11 -14 5 0 3 -7 -4 -15 -7 -8 -16 -13 -20 -10 -12 7 -4 40 9 38 6
-2 11 0 11 5 0 10 -20 39 -20 29 0 -5 -5 -5 -10 -2 -8 5 -7 11 1 21 8 10 15
11 24 4 6 -5 15 -8 19 -5z m520 0 c3 3 2 -1 -4 -7 -15 -18 -12 -32 4 -19 23
19 28 -4 6 -24 -18 -16 -25 -14 -21 8 0 4 -3 7 -9 7 -5 0 -10 -5 -10 -11 0 -5
-4 -8 -9 -4 -5 3 -12 1 -16 -5 -3 -5 -1 -11 4 -11 6 -1 16 -3 21 -4 6 -1 13
-3 16 -4 4 0 1 -7 -5 -15 -15 -18 11 -29 30 -13 11 10 11 9 0 -5 -9 -12 -10
-18 -2 -19 6 -1 16 -3 21 -4 6 -1 13 -3 16 -4 4 0 1 -8 -6 -16 -14 -16 -34
-10 -24 7 5 8 1 9 -10 5 -9 -4 -15 -3 -12 2 3 5 -6 16 -19 25 -15 10 -23 22
-19 28 5 7 2 9 -9 5 -21 -8 -42 17 -25 31 13 10 18 12 39 12 5 0 7 5 4 10 -4
6 -12 7 -18 3 -7 -3 -3 3 7 15 13 15 23 19 31 12 6 -5 15 -8 19 -5z m-741 -11
c-2 -5 -7 -10 -13 -10 -5 -1 -13 -2 -17 -3 -3 0 4 -12 17 -26 13 -14 22 -25
19 -26 -2 -1 -16 -2 -32 -3 -25 -3 -26 -2 -12 14 14 15 14 18 0 30 -11 9 -12
16 -5 25 12 14 46 13 43 -1z m316 -10 c-6 -7 -15 -11 -21 -8 -5 3 -4 12 3 20
6 7 15 11 21 8 5 -3 4 -12 -3 -20z m305 5 c-3 -5 -10 -7 -15 -3 -5 3 -7 10 -3
15 3 5 10 7 15 3 5 -3 7 -10 3 -15z m-41 -5 c-2 -7 1 -15 7 -19 8 -5 6 -13 -6
-26 -17 -19 -40 -16 -27 4 4 7 9 21 10 31 3 18 2 18 -15 3 -20 -18 -38 -12
-22 8 12 15 59 15 53 -1z m421 -15 c-9 -10 -21 -16 -26 -13 -5 3 -2 14 8 25 9
10 21 16 26 13 5 -3 2 -14 -8 -25z m-1208 -6 c-10 -11 -19 -7 -22 10 -2 15 0
16 12 6 8 -6 12 -14 10 -16z m107 11 c-3 -9 -23 -13 -36 -6 -4 2 -5 7 -2 12 7
11 41 6 38 -6z m142 -3 c-2 -9 -4 -18 -4 -20 -1 -2 -7 2 -14 8 -8 6 -18 7 -23
3 -4 -4 -3 0 4 9 6 9 18 16 26 16 7 0 12 -7 11 -16z m124 -17 c-6 -7 -15 -11
-21 -8 -5 3 -4 12 3 20 6 7 15 11 21 8 5 -3 4 -12 -3 -20z m777 9 c-2 -9 -11
-17 -20 -19 -17 -2 -17 -2 0 17 21 23 23 23 20 2z m-993 -9 c-2 -4 -14 -9 -28
-10 -19 -1 -22 2 -15 12 12 13 46 12 43 -2z m136 2 c8 -9 8 -16 2 -20 -5 -4
-12 -2 -16 4 -4 6 -11 8 -16 5 -5 -3 -6 1 -3 9 8 20 18 20 33 2z m200 -12 c-6
-7 -15 -11 -21 -8 -5 3 -4 12 3 20 6 7 15 11 21 8 5 -3 4 -12 -3 -20z m196 14
c3 -3 -1 -11 -10 -18 -8 -7 -15 -11 -16 -9 -6 31 -5 37 7 35 7 -1 16 -5 19 -8z
m-637 -15 c-7 -9 -14 -10 -23 -3 -6 5 -16 6 -20 2 -5 -4 -6 -2 -2 4 3 5 17 10
31 10 20 0 23 -3 14 -13z m954 10 c-8 -3 -6 -10 9 -22 21 -16 21 -16 1 -35
-21 -18 -25 -5 -9 22 5 6 4 12 -2 12 -5 0 -13 -5 -16 -10 -9 -15 -24 -3 -20
18 2 9 4 17 4 17 1 1 11 1 24 2 12 0 16 -1 9 -4z m-459 -16 c4 3 7 4 7 1 0 -3
-9 -13 -19 -22 -13 -12 -21 -14 -26 -6 -3 6 -3 9 2 8 4 -2 8 2 8 7 0 6 -4 9
-8 7 -5 -1 -6 2 -2 8 5 8 11 8 19 1 7 -6 16 -8 19 -4z m171 -8 c-9 -10 -21
-16 -26 -13 -12 8 8 31 27 31 13 0 13 -3 -1 -18z m110 -1 c-5 -7 -1 -9 9 -5
21 8 43 -18 25 -29 -17 -11 -38 -14 -37 -6 3 17 -2 32 -8 31 -20 -3 -24 2 -13
16 14 16 34 10 24 -7z m352 -3 c-1 -9 -6 -15 -12 -15 -9 0 -13 19 -6 33 6 12
20 -2 18 -18z m-826 6 c9 -2 -20 -25 -34 -27 -11 -1 -15 16 -7 33 1 1 9 0 19
-2 9 -2 19 -4 22 -4z m-345 -10 c3 -5 2 -12 -3 -15 -5 -3 -9 1 -9 9 0 17 3 19
12 6z m90 0 c-9 -8 -36 -10 -30 -2 2 4 11 8 20 8 8 0 13 -3 10 -6z m151 -8
c-3 -19 -36 -26 -36 -8 0 6 4 10 9 10 5 0 13 3 17 8 11 11 13 9 10 -10z m214
-8 c-12 -15 -41 -14 -40 1 0 5 4 9 9 9 5 0 13 3 17 7 12 13 26 -3 14 -17z
m106 1 c0 -16 -5 -23 -15 -21 -9 2 -18 4 -20 4 -4 1 30 41 34 41 0 0 1 -11 1
-24z m74 10 c-15 -15 -44 -17 -31 -2 6 7 18 13 26 13 11 0 12 -4 5 -11z m150
-30 c0 -2 -7 -9 -15 -16 -12 -10 -14 -8 -10 9 4 22 -9 29 -20 11 -14 -23 -25
1 -16 38 1 4 61 -38 61 -42z m444 -13 c-1 -15 -2 -30 -3 -32 -1 -2 -8 2 -16 9
-14 12 -14 15 1 31 21 23 7 25 -17 3 -13 -12 -17 -12 -15 -2 7 48 55 40 50 -9z
m-1187 21 c0 -7 -9 -11 -19 -9 -10 2 -18 1 -18 -3 0 -11 20 -38 20 -28 0 5 6
3 13 -3 8 -6 17 -9 20 -6 4 3 5 2 2 -2 -12 -16 -37 -10 -52 13 -11 18 -13 28
-4 37 14 17 38 18 38 1z m106 0 c-3 -9 -23 -13 -36 -6 -4 2 -5 7 -2 12 7 11
41 6 38 -6z m224 0 c0 -10 -10 -11 -35 -5 -2 1 -1 5 2 9 8 13 33 10 33 -4z
m302 -10 c-6 -7 -15 -11 -21 -8 -5 3 -4 12 3 20 6 7 15 11 21 8 5 -3 4 -12 -3
-20z m-380 7 c2 -1 -2 -8 -9 -16 -10 -12 -16 -13 -26 -4 -8 6 -12 15 -9 19 4
7 13 7 44 1z m196 -10 c-2 -9 -4 -18 -4 -20 -1 -2 -8 2 -16 9 -17 14 -13 27 8
27 8 0 13 -7 12 -16z m-292 -7 c-3 -9 -23 -13 -36 -6 -4 2 -5 7 -2 12 7 11 41
6 38 -6z m211 -6 c-5 -7 -1 -9 9 -5 23 9 41 -17 22 -33 -14 -11 -19 -7 -16 13
0 4 -3 8 -9 8 -5 1 -14 3 -20 4 -5 1 -13 3 -16 4 -4 0 -1 8 6 16 14 16 34 10
24 -7z m196 8 c-15 -15 -44 -17 -31 -2 6 7 18 13 26 13 11 0 12 -4 5 -11z
m106 -7 c1 -5 2 -13 3 -18 0 -6 10 -8 22 -6 18 4 19 2 7 -12 -11 -14 -11 -16
4 -10 9 3 22 -1 28 -9 7 -8 11 -14 9 -15 -32 -6 -40 -5 -48 9 -5 10 -13 16
-18 15 -4 -2 -9 2 -9 7 -1 6 -2 15 -3 20 0 6 -4 9 -8 9 -20 -3 -24 2 -13 16
13 15 24 13 26 -6z m177 8 c-4 -7 1 -8 13 -3 10 4 15 4 11 0 -4 -4 -2 -13 4
-20 10 -13 -2 -26 -29 -30 -10 -2 -11 1 -1 12 8 10 8 14 0 15 -6 1 -15 3 -21
4 -5 1 -13 3 -16 4 -4 0 -1 7 5 14 12 16 43 19 34 4z m255 -5 c-10 -11 -8 -13
6 -10 11 2 20 -3 21 -13 2 -9 -3 -16 -11 -16 -7 0 -11 4 -8 9 3 4 0 9 -5 9 -6
1 -15 3 -21 4 -5 1 -13 3 -16 4 -12 2 16 28 31 28 12 0 12 -3 3 -15z m-1030
-8 c4 -5 15 -10 25 -9 9 0 16 -4 15 -10 -4 -13 -26 -16 -34 -4 -3 5 -10 7 -15
4 -5 -3 -6 1 -3 9 4 11 0 14 -15 11 -12 -2 -19 0 -16 5 6 10 34 7 43 -6z m218
1 c-2 -14 -25 -44 -27 -34 0 2 -2 12 -4 22 -2 9 1 15 5 12 5 -3 11 -1 15 5 9
14 14 12 11 -5z m200 -10 c1 -8 -5 -12 -17 -10 -10 2 -20 0 -20 -6 -1 -5 -2
-13 -3 -19 -1 -11 -15 -14 -17 -4 -1 3 9 19 21 36 22 29 32 30 36 3z m283 -11
c-6 -8 -15 -12 -19 -9 -7 4 -7 13 -1 44 1 2 8 -2 16 -9 12 -10 13 -16 4 -26z
m-162 12 c4 -4 1 -6 -7 -4 -8 2 -14 -2 -13 -8 1 -6 -4 -11 -11 -11 -11 0 -14
18 -7 34 2 4 31 -4 38 -11z m-400 -12 c0 -7 -9 -11 -19 -9 -16 3 -22 -5 -20
-25 0 -4 -10 -6 -23 -6 -19 0 -22 3 -13 13 5 7 15 10 21 6 6 -4 8 0 4 9 -7 20
-3 24 26 24 13 0 24 -5 24 -12z m759 -9 c-3 -23 -12 -27 -26 -10 -11 13 -11
16 1 13 8 -2 13 3 11 10 -1 8 2 11 7 8 5 -3 8 -13 7 -21z m250 10 c-1 -8 -7
-20 -13 -26 -13 -13 -13 7 0 29 11 16 16 15 13 -3z m39 -5 c-1 -11 -4 -22 -7
-26 -4 -3 -4 -12 -1 -20 6 -17 -9 -18 -24 -3 -9 9 -6 19 10 40 25 34 24 34 22
9z m-926 -16 c-6 -7 -15 -11 -21 -8 -5 3 -4 12 3 20 6 7 15 11 21 8 5 -3 4
-12 -3 -20z m296 6 c-2 -11 0 -21 6 -21 5 -1 14 -3 19 -4 6 -1 13 -3 16 -4 4
0 1 -8 -6 -16 -13 -15 -35 -11 -25 6 4 5 1 9 -4 9 -20 0 -26 -5 -26 -19 0 -9
-11 -16 -27 -16 -22 -2 -26 1 -17 11 6 8 15 11 20 8 8 -5 13 10 7 20 -3 4 32
46 38 46 2 0 1 -9 -1 -20z m185 4 c11 -12 11 -15 -1 -12 -8 2 -13 -2 -12 -9 1
-6 -5 -10 -15 -8 -9 2 -19 4 -21 4 -4 1 30 41 34 41 2 0 8 -7 15 -16z m-562
-7 c9 -10 6 -13 -13 -13 -19 0 -22 3 -13 13 6 7 12 13 13 13 1 0 7 -6 13 -13z
m271 -4 c-6 -7 -15 -10 -20 -7 -13 8 -3 21 15 21 12 0 13 -4 5 -14z m376 0
c-2 -10 -4 -19 -4 -21 -1 -2 -6 0 -11 3 -8 5 -7 11 1 21 15 18 18 18 14 -3z
m171 -1 c-2 -9 -10 -16 -18 -18 -10 -1 -15 4 -13 15 4 20 2 18 19 18 7 0 13
-7 12 -15z m89 -12 c-9 -10 -23 -16 -31 -13 -10 4 -8 9 9 23 27 23 44 15 22
-10z m-1078 6 c4 -4 4 -7 -2 -6 -5 1 -12 1 -15 0 -21 -8 -37 -6 -37 4 0 14 41
15 54 2z m302 -5 c2 -1 -2 -8 -9 -16 -10 -12 -16 -13 -26 -4 -8 6 -12 15 -9
19 4 7 13 7 44 1z m176 -10 c-2 -9 -4 -18 -4 -20 -1 -2 -8 2 -16 9 -17 14 -13
27 8 27 8 0 13 -7 12 -16z m439 -3 c-5 -7 -1 -9 9 -5 23 9 41 -17 22 -33 -14
-11 -19 -7 -16 13 1 6 -14 11 -31 8 -5 0 -5 14 1 37 1 2 6 0 11 -3 6 -4 7 -11
4 -17z m-985 -2 c11 -14 6 -15 -27 -7 -4 1 8 21 12 21 2 0 9 -6 15 -14z m280
-3 c-6 -7 -15 -10 -20 -7 -13 8 -3 21 15 21 12 0 13 -4 5 -14z m197 -10 c-10
-11 -19 -7 -22 10 -2 15 0 16 12 6 8 -6 12 -14 10 -16z m342 11 c-1 -5 -9 -9
-16 -10 -10 -2 -11 1 -1 12 12 14 24 13 17 -2z m261 -10 c-6 -7 -15 -11 -21
-8 -5 3 -4 12 3 20 6 7 15 11 21 8 5 -3 4 -12 -3 -20z m96 -2 c-2 -9 -4 -19
-4 -21 -1 -2 -8 2 -16 9 -12 10 -13 16 -4 26 14 17 28 9 24 -14z m-1070 6 c4
-3 2 -9 -3 -12 -5 -3 -15 1 -21 8 -10 11 -9 14 3 12 9 -1 18 -5 21 -8z m97
-14 c-3 -15 -1 -16 11 -6 11 10 17 9 27 -3 7 -8 10 -16 6 -16 -3 -1 -10 -3
-16 -4 -5 -1 -15 -3 -21 -4 -5 0 -8 -5 -4 -10 10 -18 -13 -21 -26 -4 -8 10 -9
14 -2 10 17 -10 26 10 14 30 -6 10 -11 14 -11 10 0 -5 -5 -5 -10 -2 -15 9 -3
24 18 20 10 -1 16 -9 14 -21z m203 -2 c-3 -3 -12 -7 -19 -8 -12 -2 -13 4 -7
35 1 2 8 -2 16 -9 9 -7 13 -15 10 -18z m360 0 c-3 -3 -12 -7 -19 -8 -12 -2
-13 4 -7 35 1 2 8 -2 16 -9 9 -7 13 -15 10 -18z m156 5 c-6 -6 -18 -12 -27
-13 -14 -2 -14 0 1 17 10 10 22 16 27 13 6 -4 6 -10 -1 -17z m-596 1 c5 4 5 1
1 -5 -4 -7 -2 -14 3 -14 6 -1 16 -2 23 -3 14 -1 20 -34 7 -42 -5 -3 -8 0 -7 8
2 7 -3 12 -10 10 -8 -1 -11 2 -7 8 3 5 1 11 -4 11 -6 1 -16 2 -23 3 -6 0 -12
9 -14 19 -2 14 1 15 10 8 7 -6 17 -7 21 -3z m360 -16 c-2 -9 -4 -18 -4 -20 -1
-2 -6 0 -11 3 -8 5 -8 11 -1 19 6 7 7 17 3 21 -4 5 -2 5 5 2 6 -4 10 -15 8
-25z m185 18 c-8 -5 -15 -14 -15 -20 0 -15 -20 -12 -21 3 -1 19 3 23 28 24 17
2 19 0 8 -7z m246 -17 c-2 -9 -10 -17 -19 -19 -11 -1 -14 2 -10 9 4 7 8 15 9
20 1 4 2 10 3 13 3 13 19 -8 17 -23z m-1058 8 c2 -1 0 -6 -3 -11 -5 -8 -11 -8
-19 -1 -7 6 -17 7 -21 3 -5 -4 -5 -2 -2 5 6 9 18 10 45 4z m451 -27 c-6 -8
-15 -12 -19 -9 -7 4 -7 13 -1 44 1 2 8 -2 16 -9 12 -10 13 -16 4 -26z m441 21
c0 -3 9 -14 21 -23 19 -16 19 -19 5 -31 -13 -11 -15 -10 -11 9 3 16 0 20 -10
17 -20 -8 -38 16 -23 31 11 11 21 10 18 -3z m264 6 c3 -4 -3 -16 -13 -26 -20
-17 -24 -4 -8 23 10 14 14 15 21 3z m-1046 -10 c2 -1 0 -6 -3 -11 -5 -8 -11
-8 -19 -1 -7 6 -17 7 -21 3 -5 -4 -5 -2 -2 5 6 9 18 10 45 4z m277 -10 c-2 -9
-4 -18 -4 -20 -1 -2 -8 2 -16 9 -17 14 -13 27 8 27 8 0 13 -7 12 -16z m349 -2
c-9 -10 -21 -16 -26 -13 -12 8 8 31 27 31 13 0 13 -3 -1 -18z m252 4 c-2 -9
-11 -17 -20 -19 -17 -2 -17 -2 0 17 21 23 23 23 20 2z m-1022 -6 c4 4 4 -1 0
-12 -7 -17 -6 -18 8 -7 12 10 18 10 27 -2 8 -9 8 -16 2 -20 -5 -4 -12 -2 -16
4 -4 6 -11 8 -16 5 -5 -4 -12 1 -15 9 -3 9 -9 14 -13 11 -4 -2 -8 2 -8 10 0
10 4 12 12 5 7 -5 15 -7 19 -3z m590 -8 c-3 -6 5 -8 19 -5 25 4 30 -6 14 -31
-11 -18 3 -16 23 2 15 14 17 13 14 -12 -1 -16 -2 -29 -3 -31 -1 -2 -15 6 -32
18 -16 12 -28 25 -25 28 3 3 -3 12 -14 19 -20 14 -19 39 1 27 5 -3 7 -10 3
-15z m529 9 c-15 -26 -11 -38 11 -34 14 3 23 -1 23 -9 0 -8 -3 -13 -6 -13 -15
3 -40 -15 -34 -25 3 -6 1 -7 -6 -3 -6 4 -18 3 -26 -4 -18 -15 -24 -2 -16 36 0
4 7 1 15 -5 7 -6 21 -8 30 -5 15 6 15 8 -4 21 -20 14 -20 16 -4 34 19 22 29
25 17 7z m-850 -14 c-3 -9 -23 -13 -36 -6 -4 2 -5 7 -2 12 7 11 41 6 38 -6z
m253 -9 c1 -8 -1 -14 -4 -14 -20 3 -32 -2 -29 -12 1 -6 -7 -13 -18 -15 -17 -2
-16 1 8 22 15 13 25 24 22 24 -3 0 -3 5 0 11 8 12 18 5 21 -16z m179 6 c-2 -9
-4 -18 -4 -20 -1 -2 -8 2 -16 9 -17 14 -13 27 8 27 8 0 13 -7 12 -16z m156 -5
c-6 -7 -7 -17 -3 -22 4 -4 -1 -2 -11 5 -13 10 -15 17 -6 27 6 8 15 11 21 8 5
-4 5 -11 -1 -18z m-766 5 c-9 -8 -36 -10 -30 -2 2 4 11 8 20 8 8 0 13 -3 10
-6z m361 -15 c1 -7 -4 -13 -11 -13 -7 0 -11 7 -10 16 2 9 4 18 4 20 2 8 15
-10 17 -23z m343 -12 c-6 -8 -15 -11 -21 -8 -5 4 -5 11 1 18 6 7 7 17 3 22 -4
4 1 2 11 -5 13 -10 15 -17 6 -27z m-410 9 c-8 -9 -8 -13 0 -14 6 -1 16 -2 23
-3 6 0 12 -9 14 -19 2 -14 -1 -15 -10 -8 -7 6 -17 7 -21 3 -5 -4 -4 -1 0 7 6
11 4 13 -9 8 -9 -4 -14 -3 -11 2 3 5 1 12 -5 16 -14 8 -5 22 14 22 12 0 13 -4
5 -14z m357 -6 c-4 -28 -17 -38 -32 -26 -13 10 -12 14 2 30 18 19 34 18 30 -4z
m329 13 c6 0 1 -6 -10 -12 -27 -16 -28 -16 -31 3 -1 11 4 16 15 14 9 -2 21 -4
26 -5z m-923 -15 c3 0 10 -4 15 -9 4 -5 3 -6 -4 -2 -6 3 -15 2 -18 -4 -5 -8
-11 -7 -21 1 -16 13 -8 33 9 22 7 -4 15 -8 19 -8z m84 -9 c2 -17 -22 -15 -39
4 -8 9 -8 11 0 6 6 -3 15 -1 18 5 8 12 18 5 21 -15z m83 15 c2 -1 -2 -8 -9
-16 -10 -12 -16 -13 -26 -4 -8 6 -12 15 -9 19 4 7 13 7 44 1z m245 0 c3 -5 -1
-14 -8 -20 -12 -10 -14 -9 -11 6 2 10 4 19 4 21 2 5 10 2 15 -7z m341 -3 c3
-3 -1 -11 -10 -18 -8 -7 -15 -11 -16 -9 -6 31 -5 37 7 35 7 -1 16 -5 19 -8z
m87 -11 c-5 -7 -8 -20 -7 -30 2 -9 0 -15 -4 -12 -5 2 -7 17 -5 32 3 36 2 35
14 28 7 -4 7 -11 2 -18z m-889 -12 c4 0 7 -4 7 -10 0 -13 -21 -14 -37 -2 -16
12 -6 30 10 20 7 -4 15 -8 20 -8z m246 -21 c-6 -8 -15 -12 -19 -9 -7 4 -7 13
-1 44 1 2 8 -2 16 -9 12 -10 13 -16 4 -26z m250 0 c-6 -8 -15 -12 -19 -9 -7 4
-7 13 -1 44 1 2 8 -2 16 -9 12 -10 13 -16 4 -26z m236 17 c-2 -9 -4 -18 -4
-20 -1 -2 -8 2 -16 9 -17 14 -13 27 8 27 8 0 13 -7 12 -16z m101 -6 c1 -8 -5
-20 -14 -27 -10 -8 -13 -9 -9 -1 4 6 3 15 -3 18 -8 5 -7 11 1 21 13 16 22 12
25 -11z m-749 8 c-4 -3 -2 -12 4 -19 10 -12 7 -12 -30 -5 -5 1 20 31 27 31 3
0 2 -3 -1 -7z m89 -17 c1 -7 -4 -13 -11 -13 -7 0 -11 7 -10 16 2 9 4 18 4 20
2 8 15 -10 17 -23z m493 -2 c-6 -7 -15 -11 -21 -8 -5 3 -4 12 3 20 6 7 15 11
21 8 5 -3 4 -12 -3 -20z m256 6 c-3 -18 5 -25 28 -21 12 2 8 -6 -10 -20 -13
-11 -15 -11 -9 -1 6 9 3 12 -10 10 -20 -3 -26 19 -11 40 13 17 16 15 12 -8z
m-978 -14 c14 -15 14 -18 2 -8 -9 6 -18 10 -21 7 -3 -3 -10 1 -16 8 -9 10 -8
14 3 14 8 0 23 -10 32 -21z m477 13 c-2 -4 5 -13 16 -19 11 -6 20 -8 20 -5 0
4 5 3 10 0 8 -5 7 -11 -1 -21 -12 -15 -33 -9 -24 7 4 5 1 10 -4 10 -6 1 -16 2
-23 3 -16 2 -19 33 -2 33 7 0 11 -4 8 -8z m341 -9 c-3 -15 1 -20 12 -18 12 2
17 -5 18 -24 2 -26 1 -26 -21 -10 -12 9 -20 20 -18 24 2 4 0 10 -6 13 -8 5 -7
11 1 21 16 19 19 18 14 -6z m-404 -14 c-6 -7 -7 -17 -3 -22 4 -4 -1 -2 -11 5
-13 10 -15 17 -6 27 6 8 15 11 21 8 5 -4 5 -11 -1 -18z m175 -1 c1 -8 -5 -20
-14 -27 -10 -7 -14 -8 -10 -4 4 5 3 15 -4 23 -9 11 -8 13 3 11 8 -2 13 3 11
12 -2 8 0 11 4 7 4 -4 9 -14 10 -22z m70 8 c-3 -19 -19 -21 -21 -2 -2 9 3 16
10 16 7 0 12 -6 11 -14z m89 8 c-3 -5 -1 -13 5 -16 8 -5 8 -11 1 -19 -6 -7 -7
-17 -3 -22 4 -4 0 -3 -10 4 -9 7 -15 18 -14 25 2 15 15 37 22 37 3 0 3 -4 -1
-9z m-634 -18 c7 -7 5 -14 -5 -22 -15 -12 -28 -2 -32 25 -2 14 22 12 37 -3z
m83 -15 c-3 -5 -12 -4 -20 3 -7 6 -11 15 -8 21 3 5 12 4 20 -3 7 -6 11 -15 8
-21z m81 2 c-4 -7 -13 -7 -44 -1 -2 1 2 8 9 16 10 12 16 13 26 4 8 -6 12 -15
9 -19z m98 -4 c3 3 8 1 11 -4 3 -5 -1 -15 -9 -22 -8 -7 -16 -10 -16 -6 -1 3
-3 11 -4 16 -1 6 -3 15 -4 21 -1 8 -5 9 -14 0 -18 -15 -30 -2 -15 17 10 12 15
11 29 -7 9 -11 19 -18 22 -15z m539 12 c-6 -6 -8 -16 -6 -23 5 -13 -11 -28
-34 -31 -10 -2 -10 1 -1 12 6 7 15 11 20 8 6 -3 8 6 5 19 -5 28 2 40 16 31 6
-4 6 -10 0 -16z m-466 -13 c-1 -9 -6 -15 -12 -15 -9 0 -13 19 -6 33 6 12 20
-2 18 -18z m241 18 c-4 -3 -2 -12 4 -20 6 -7 10 -13 8 -14 -30 -6 -37 -5 -35
5 2 15 16 36 23 36 4 0 3 -3 0 -7z m-628 -17 c11 -14 6 -15 -27 -7 -4 1 8 21
12 21 2 0 9 -6 15 -14z m566 -14 c-2 -9 -4 -19 -4 -21 -1 -2 -7 2 -14 8 -8 6
-17 9 -20 6 -4 -3 -4 -2 -1 3 3 4 11 7 17 7 7 1 11 7 9 14 -1 7 2 10 7 7 5 -3
8 -14 6 -24z m326 11 c7 -10 9 -15 5 -11 -5 4 -15 3 -22 -3 -11 -9 -13 2 -5
29 2 6 10 1 22 -15z m-947 -12 c12 -14 14 -19 4 -17 -22 3 -39 17 -33 27 8 12
9 12 29 -10z m240 -23 c-8 -12 -27 6 -30 28 -2 14 0 14 17 -1 10 -10 16 -22
13 -27z m62 16 c1 -9 0 -13 -4 -10 -3 4 -7 14 -8 22 -1 9 0 13 4 10 3 -4 7
-14 8 -22z m478 18 c3 -5 -1 -9 -9 -9 -8 0 -12 4 -9 9 3 4 7 8 9 8 2 0 6 -4 9
-8z m-617 -18 c0 -14 -23 -12 -37 2 -7 7 -2 10 13 10 13 0 24 -5 24 -12z m387
-16 c-3 -5 -12 -4 -20 3 -7 6 -11 15 -8 21 3 5 12 4 20 -3 7 -6 11 -15 8 -21z
m170 13 c3 -5 -1 -14 -8 -20 -12 -10 -14 -9 -11 6 2 10 4 19 4 21 2 5 10 2 15
-7z m-607 -16 c0 -6 -6 -12 -12 -12 -6 0 -12 6 -12 12 0 6 6 12 12 12 6 0 12
-6 12 -12z m232 -21 c-6 -8 -15 -12 -19 -9 -7 4 -7 13 -1 44 1 2 8 -2 16 -9
12 -10 13 -16 4 -26z m70 10 c-6 -7 -15 -11 -21 -8 -5 3 -4 12 3 20 6 7 15 11
21 8 5 -3 4 -12 -3 -20z m69 9 c-8 -10 -14 -10 -24 -2 -18 15 -18 15 11 15 19
0 22 -3 13 -13z m170 -20 c-9 -12 -7 -13 14 -9 20 3 25 0 24 -12 -2 -8 -11
-16 -20 -18 -10 -1 -15 0 -12 3 3 4 -3 12 -13 20 -16 11 -18 20 -12 52 1 2 8
-2 16 -9 12 -10 13 -16 3 -27z m132 31 c0 -8 -19 -13 -24 -6 -3 5 1 9 9 9 8 0
15 -2 15 -3z m29 -20 c-6 -7 -15 -11 -21 -8 -5 3 -4 12 3 20 6 7 15 11 21 8 5
-3 4 -12 -3 -20z m-745 -3 c12 -14 14 -19 4 -17 -22 3 -39 17 -33 27 8 12 9
12 29 -10z m131 0 c-2 -9 -4 -18 -4 -20 -1 -2 -8 2 -16 9 -17 14 -13 27 8 27
8 0 13 -7 12 -16z m74 5 c11 -14 6 -15 -27 -7 -4 1 8 21 12 21 2 0 9 -6 15
-14z m310 0 c8 -10 8 -16 -2 -24 -10 -9 -13 -6 -13 13 0 29 0 29 15 11z m-63
-31 c-1 -8 -6 -18 -10 -22 -4 -4 -7 -3 -6 2 1 6 1 12 0 15 -1 3 -3 13 -5 23
-3 14 0 16 10 7 7 -6 12 -17 11 -25z m-70 0 c0 -12 -5 -22 -11 -22 -6 0 -11
10 -11 22 0 12 5 22 11 22 6 0 11 -10 11 -22z m298 16 c3 -5 -1 -14 -8 -20
-12 -10 -14 -9 -11 6 2 10 4 19 4 21 2 5 10 2 15 -7z m-714 -7 c0 -8 -19 -13
-24 -6 -3 5 1 9 9 9 8 0 15 -2 15 -3z m121 -11 c12 -16 12 -17 -2 -6 -9 7 -20
9 -24 5 -5 -4 -5 -1 -1 6 9 16 11 15 27 -5z m85 -19 c2 -14 0 -14 -17 1 -10
10 -16 22 -13 27 8 12 27 -6 30 -28z m70 11 c-1 -9 -6 -15 -12 -15 -9 0 -13
19 -6 33 6 12 20 -2 18 -18z m73 -1 c-6 -7 -15 -11 -21 -8 -5 3 -4 12 3 20 6
7 15 11 21 8 5 -3 4 -12 -3 -20z m-252 -18 c14 -15 14 -18 2 -8 -9 6 -18 10
-21 7 -3 -3 -10 1 -16 8 -9 10 -8 14 3 14 8 0 23 -10 32 -21z m359 -12 c-4
-24 -20 -16 -22 11 -1 19 2 22 12 15 6 -6 11 -18 10 -26z m65 12 c-6 -7 -7
-17 -3 -21 4 -5 2 -5 -5 -2 -9 6 -10 18 -4 45 1 2 6 0 11 -3 8 -5 8 -11 1 -19z
m63 3 c-3 -5 -10 -7 -15 -3 -5 3 -7 10 -3 15 3 5 10 7 15 3 5 -3 7 -10 3 -15z
m-415 -13 c9 -11 9 -16 -1 -22 -7 -4 -10 -4 -6 1 4 4 3 14 -3 22 -6 7 -9 13
-6 13 2 0 10 -6 16 -14z m77 -12 c2 -12 -1 -13 -12 -3 -7 6 -11 16 -8 21 7 11
17 3 20 -18z m79 14 c4 -3 2 -9 -3 -12 -5 -3 -15 1 -21 8 -10 11 -9 14 3 12 9
-1 18 -5 21 -8z m61 -13 c1 -8 -9 -21 -22 -30 -13 -8 -24 -13 -24 -10 0 3 0 8
0 13 0 4 5 8 10 8 6 1 15 2 21 3 8 1 9 5 0 14 -6 8 -8 17 -4 20 8 9 16 1 19
-18z m-233 -25 c6 -8 8 -11 3 -7 -5 4 -15 2 -23 -5 -7 -6 -16 -8 -20 -4 -3 3
-1 6 6 6 7 0 9 5 6 10 -4 6 -11 7 -17 4 -6 -4 -8 -2 -5 4 9 14 34 9 50 -8z
m73 8 c4 4 3 0 -4 -9 -6 -9 -9 -20 -5 -25 4 -5 1 -3 -7 3 -18 16 -24 49 -6 34
7 -6 17 -7 22 -3z m198 4 c3 -5 -1 -9 -9 -9 -8 0 -12 4 -9 9 3 4 7 8 9 8 2 0
6 -4 9 -8z m-129 -20 c-10 -11 -35 -10 -42 0 -3 6 -1 8 5 4 6 -3 13 -2 17 4 4
6 11 8 16 4 6 -3 8 -9 4 -12z m691 -139 c-10 -11 -19 -7 -22 10 -2 15 0 16 12
6 8 -6 12 -14 10 -16z m42 -6 c-1 -2 3 -11 10 -20 9 -10 10 -17 2 -22 -6 -4
-10 -3 -9 2 1 4 0 10 -1 13 -5 14 -8 41 -3 37 2 -3 3 -7 1 -10z m1630 -97 c10
-16 10 -20 -2 -20 -7 0 -16 9 -19 20 -3 11 -2 20 2 20 3 0 12 -9 19 -20z
m-1633 -10 c-3 -5 3 -13 12 -19 10 -6 13 -11 7 -11 -8 0 -12 -40 -5 -57 3 -8
0 -13 -6 -13 -5 0 -9 5 -9 10 -1 6 -3 12 -4 15 -1 3 -3 17 -4 33 -1 15 -4 32
-8 38 -4 6 -5 14 -1 17 8 9 24 -3 18 -13z m-60 -47 c-1 -10 0 -22 3 -28 10
-16 10 -55 0 -49 -4 3 -6 9 -3 14 3 5 1 11 -5 15 -6 4 -8 10 -5 15 3 5 1 12
-5 15 -8 5 -7 11 1 21 15 18 18 18 14 -3z m-41 -114 c-3 -5 -10 -7 -15 -3 -5
3 -7 10 -3 15 3 5 10 7 15 3 5 -3 7 -10 3 -15z m93 -4 c0 -8 -4 -12 -9 -9 -5
3 -6 10 -3 15 9 13 12 11 12 -6z m-153 -16 c-3 -5 -10 -7 -15 -3 -5 3 -7 10
-3 15 3 5 10 7 15 3 5 -3 7 -10 3 -15z m100 -30 c-3 -5 -10 -7 -15 -3 -5 3 -7
10 -3 15 3 5 10 7 15 3 5 -3 7 -10 3 -15z m-399 -16 c-1 -10 2 -26 7 -35 8
-16 3 -18 -42 -18 -45 0 -52 3 -60 26 -6 14 -10 27 -10 29 0 3 17 6 92 13 10
1 15 -4 13 -15z m341 -9 c2 -12 -1 -13 -12 -3 -7 6 -11 16 -8 21 7 11 17 3 20
-18z m59 -3 c3 -5 2 -12 -3 -15 -5 -3 -9 1 -9 9 0 17 3 19 12 6z m-18 -86 c0
-8 -4 -12 -9 -9 -5 3 -6 10 -3 15 9 13 12 11 12 -6z m-862 -4 c3 -5 2 -12 -3
-15 -5 -3 -9 1 -9 9 0 17 3 19 12 6z m839 -29 c3 -5 -1 -9 -9 -9 -8 0 -12 4
-9 9 3 4 7 8 9 8 2 0 6 -4 9 -8z m32 -37 c1 -8 -1 -17 -5 -19 -4 -3 -7 6 -7
19 0 25 8 25 12 0z m1334 -5 c0 -5 -2 -10 -4 -10 -3 0 -8 5 -11 10 -3 6 -1 10
4 10 6 0 11 -4 11 -10z m-780 -1880 c0 -21 -24 -27 -50 -10 -12 7 -10 11 10
19 36 14 40 13 40 -9z m-1368 -52 c-7 -7 -12 -8 -12 -2 0 6 3 14 7 17 3 4 9 5
12 2 2 -3 -1 -11 -7 -17z"/>
<path d="M1956 5292 c-2 -4 -3 -20 -2 -35 2 -16 -1 -24 -7 -20 -6 3 -7 1 -3
-5 3 -6 2 -13 -4 -17 -16 -10 -11 -23 8 -21 9 2 22 -4 28 -12 9 -12 16 -7 44
29 20 25 25 36 12 25 -12 -11 -22 -16 -22 -11 0 4 -7 2 -15 -5 -8 -7 -15 -9
-15 -5 0 4 -7 2 -15 -5 -15 -12 -22 0 -8 14 7 7 13 76 7 76 -2 0 -5 -4 -8 -8z
m54 -86 c0 -2 -8 -10 -17 -17 -16 -13 -17 -12 -4 4 13 16 21 21 21 13z"/>
<path d="M2076 5291 c-1 -3 -1 -17 0 -31 1 -14 -3 -31 -9 -39 -7 -7 -12 -21
-12 -30 0 -9 -7 -16 -15 -16 -8 -1 -13 -7 -11 -15 2 -8 4 -21 4 -27 0 -13 11
-8 13 5 2 19 17 41 24 37 4 -3 14 3 21 12 12 14 12 15 0 9 -8 -6 -7 0 4 18 20
31 23 32 21 9 0 -10 5 -17 12 -15 8 1 11 -2 7 -8 -3 -5 0 -20 7 -32 7 -13 11
-30 10 -38 -2 -10 2 -9 13 5 14 18 14 21 -7 38 -13 10 -18 16 -12 13 6 -3 10
4 9 17 -1 14 -8 21 -18 19 -18 -3 -17 12 3 48 12 23 12 24 -3 11 -14 -11 -18
-11 -22 1 -6 14 -33 20 -39 9z m33 -37 c-6 -7 -15 -11 -21 -8 -5 3 -4 12 3 20
6 7 15 11 21 8 5 -3 4 -12 -3 -20z m-19 -28 c0 -2 -8 -10 -17 -17 -16 -13 -17
-12 -4 4 13 16 21 21 21 13z"/>
<path d="M2178 5293 c10 -4 10 -8 1 -20 -7 -8 -8 -13 -3 -12 23 4 35 -2 28
-13 -5 -8 -1 -8 10 1 17 14 16 16 -6 33 -13 9 -27 17 -33 17 -5 0 -4 -3 3 -6z"/>
<path d="M1786 5273 c-6 -15 -8 -15 -16 -3 -9 13 -10 13 -11 0 -1 -8 -1 -19 0
-24 1 -4 -2 -13 -6 -20 -4 -7 -1 -4 8 5 15 17 17 17 27 -6 8 -18 8 -26 0 -31
-7 -4 -8 -3 -4 4 11 18 0 14 -15 -5 -12 -14 -12 -16 0 -8 11 6 13 4 7 -10 -5
-14 -4 -16 7 -7 8 7 18 8 22 4 5 -4 5 -2 2 4 -3 6 0 11 8 11 13 0 13 -3 0 -23
-25 -38 11 -23 46 19 28 35 29 38 15 59 -9 12 -16 17 -16 10 0 -6 -5 -12 -11
-12 -5 0 -7 6 -3 13 6 9 5 9 -7 0 -8 -7 -20 -8 -28 -4 -9 6 -10 10 -2 15 6 4
9 12 6 17 -9 14 -22 11 -29 -8z m17 -4 c-14 -14 -5 -42 10 -32 6 4 7 1 2 -7
-6 -10 -11 -9 -21 5 -10 14 -11 22 -3 32 6 7 14 13 17 13 3 0 1 -5 -5 -11z
m58 -72 c-13 -12 -21 -17 -17 -11 3 7 -1 15 -10 18 -8 3 -12 10 -9 16 4 6 10
8 15 5 5 -3 12 0 15 6 5 8 10 8 18 0 8 -8 5 -17 -12 -34z"/>
<path d="M1857 5223 c-4 -3 -7 -11 -7 -17 0 -6 5 -5 12 2 6 6 9 14 7 17 -3 3
-9 2 -12 -2z"/>
<path d="M1895 5270 c-16 -17 -16 -20 1 -44 14 -23 15 -29 3 -44 -8 -10 -2 -5
13 12 15 16 26 32 23 34 -2 3 0 12 5 21 18 34 -18 51 -45 21z m30 -20 c-17
-19 -41 -18 -29 1 3 5 9 7 14 4 5 -3 11 -1 15 5 3 5 9 10 12 10 3 0 -2 -9 -12
-20z"/>
<path d="M2269 5273 c-13 -16 -12 -17 4 -4 9 7 17 15 17 17 0 8 -8 3 -21 -13z"/>
<path d="M1677 5251 c-8 -9 -8 -12 -1 -8 7 4 15 0 18 -9 5 -13 9 -14 21 -4 17
14 10 37 -11 37 -8 0 -20 -7 -27 -16z"/>
<path d="M2289 5243 c-13 -16 -12 -17 4 -4 9 7 17 15 17 17 0 8 -8 3 -21 -13z"/>
<path d="M2323 5238 c1 -17 10 -22 30 -19 5 1 6 -3 2 -9 -3 -5 -1 -10 5 -10 6
0 10 8 8 18 -2 9 -10 16 -17 14 -8 -2 -11 3 -8 11 3 7 -1 14 -8 14 -8 0 -13
-9 -12 -19z"/>
<path d="M2216 5208 c-8 -12 -13 -25 -10 -29 2 -4 0 -10 -5 -13 -5 -4 -13 -1
-17 5 -4 7 -3 9 3 6 8 -5 10 16 4 42 -1 2 -8 -2 -16 -9 -14 -11 -14 -15 -1
-35 13 -20 13 -25 0 -44 -16 -22 -39 -19 -30 5 8 21 -10 26 -25 7 -12 -14 -12
-16 0 -8 10 6 12 4 7 -4 -5 -7 -11 -10 -14 -7 -3 3 -13 -1 -23 -10 -13 -12
-19 -12 -25 -3 -4 7 -3 10 4 5 7 -4 10 1 7 14 -4 20 10 29 17 11 2 -5 11 1 20
14 15 19 15 25 3 41 -13 18 -13 18 -12 -1 1 -12 -8 -24 -27 -33 -18 -9 -24
-17 -17 -22 9 -5 8 -10 -3 -20 -16 -13 -12 -35 5 -25 5 4 9 2 9 -3 0 -5 7 -9
15 -9 8 0 12 4 9 8 -2 4 1 11 7 15 8 4 9 3 5 -4 -4 -7 -4 -12 1 -13 4 0 16 -2
26 -4 11 -2 16 1 14 8 -3 7 -10 11 -16 9 -7 -1 -10 2 -6 8 4 6 12 7 18 2 7 -4
22 -7 34 -6 12 0 20 -3 17 -7 -3 -5 -1 -9 3 -9 5 0 14 9 21 21 7 12 16 18 19
15 4 -3 13 0 22 6 10 8 9 4 -3 -9 -10 -13 -23 -20 -27 -17 -5 3 -9 1 -9 -5 0
-26 22 -17 55 24 21 25 42 42 47 39 5 -3 3 -13 -6 -23 -9 -10 -16 -22 -16 -27
1 -5 17 9 36 31 20 22 33 34 28 26 -5 -10 -3 -12 6 -6 10 6 7 12 -11 26 -26
19 -62 21 -55 3 6 -16 -21 -39 -44 -39 -10 0 -27 -8 -38 -18 -14 -13 -20 -14
-18 -5 3 22 17 39 27 33 5 -4 9 -1 9 4 0 6 -5 11 -12 11 -6 0 -3 6 7 14 22 16
43 10 26 -7 -19 -19 -12 -31 7 -14 10 10 21 16 23 15 2 -2 -3 3 -11 10 -35 31
-48 33 -64 10z m121 -23 c0 -8 -4 -12 -9 -9 -5 3 -6 10 -3 15 9 13 12 11 12
-6z m-217 -9 c0 -2 -8 -10 -17 -17 -16 -13 -17 -12 -4 4 13 16 21 21 21 13z"/>
<path d="M2378 5159 c-10 -5 -18 -7 -18 -4 0 4 -12 -7 -26 -25 -19 -22 -30
-28 -39 -20 -8 7 -18 3 -35 -15 -13 -14 -20 -28 -17 -32 4 -3 7 0 7 8 0 11 2
11 9 1 6 -10 10 -10 21 3 9 11 9 15 1 15 -7 0 -9 5 -5 11 5 8 10 6 16 -5 5 -9
15 -13 21 -9 7 3 4 -3 -5 -14 -21 -23 -24 -38 -5 -26 17 11 38 13 32 3 -3 -5
7 -8 21 -7 17 2 28 9 30 20 3 22 -13 32 -31 17 -8 -6 -16 -7 -19 -2 -3 6 2 16
11 23 14 12 16 12 8 -1 -5 -9 -4 -12 1 -7 5 5 9 16 9 25 0 9 6 17 14 17 8 0
15 8 17 18 1 9 2 17 1 17 -1 0 -10 -5 -19 -11z m-18 -22 c0 -2 -10 -12 -22
-23 l-23 -19 19 23 c18 21 26 27 26 19z"/>
<path d="M2299 5143 c-13 -16 -12 -17 4 -4 16 13 21 21 13 21 -2 0 -10 -8 -17
-17z"/>
<path d="M1944 5128 c-10 -13 -15 -20 -10 -16 5 4 14 1 21 -8 10 -14 12 -14
25 1 7 9 9 15 4 14 -27 -5 -36 1 -24 16 7 8 10 15 8 15 -3 0 -13 -10 -24 -22z"/>
<path d="M1806 5095 c-9 -14 -22 -23 -28 -19 -7 4 -8 3 -4 -5 9 -14 31 0 47
31 14 27 4 22 -15 -7z"/>
<path d="M1856 5101 c-4 -5 -2 -12 3 -15 5 -4 12 -2 15 3 4 5 2 12 -3 15 -5 4
-12 2 -15 -3z"/>
<path d="M2162 5088 c-7 -7 -12 -17 -12 -22 0 -6 5 -4 10 4 6 9 10 10 10 3 0
-6 -5 -15 -10 -18 -7 -4 -7 -12 0 -24 5 -10 6 -22 2 -26 -4 -5 -1 -5 6 -1 7 4
10 11 7 16 -3 5 0 12 6 16 7 4 10 3 7 -2 -4 -8 43 -62 50 -56 1 1 2 0 2 -3 0
-3 0 -8 0 -12 0 -4 -5 -2 -12 5 -7 7 -16 12 -21 12 -12 0 -4 -21 8 -22 6 -1
16 -8 23 -17 7 -9 11 -11 10 -6 -1 6 3 20 10 32 9 17 9 22 -2 26 -14 6 -16 30
-3 43 10 11 8 26 -2 19 -6 -3 -15 4 -21 16 -12 22 -22 19 -26 -7 -2 -10 3 -14
11 -10 22 8 27 -10 7 -25 -9 -7 -14 -9 -10 -5 5 5 -1 15 -12 23 -10 7 -17 20
-14 27 7 19 -10 28 -24 14z"/>
<path d="M2104 5068 c-3 -4 -3 -8 1 -8 3 0 1 -9 -5 -20 -6 -11 -16 -17 -22
-14 -6 4 -8 3 -4 -4 3 -6 1 -14 -5 -17 -5 -4 -8 -14 -5 -22 3 -8 2 -11 -3 -8
-5 3 -12 1 -16 -5 -6 -10 9 -15 30 -10 6 1 7 -2 3 -5 -4 -4 -3 -16 3 -27 9
-17 8 -18 -9 -9 -14 7 -22 7 -25 1 -3 -6 -4 -5 -3 2 1 7 -7 21 -18 31 -12 10
-16 16 -9 13 6 -4 14 -2 18 4 3 5 1 10 -4 10 -6 0 -10 3 -8 8 1 4 -2 8 -6 9
-5 1 -15 10 -23 20 -13 17 -15 16 -18 -6 0 -5 -10 -17 -21 -27 -12 -11 -19
-18 -16 -16 2 1 15 -5 28 -13 13 -9 27 -13 32 -11 11 7 36 -22 27 -31 -3 -3
-6 -1 -6 4 0 12 -26 12 -35 0 -3 -4 -2 -5 1 -2 12 8 45 -16 37 -28 -4 -7 1 -5
12 3 10 8 25 15 34 15 9 0 22 4 29 8 16 11 35 -2 25 -17 -4 -7 0 -3 10 8 17
19 17 20 -10 43 -15 13 -23 22 -18 21 10 -3 15 4 15 24 0 6 -10 3 -22 -8 -12
-10 -18 -13 -14 -6 4 7 2 12 -5 12 -8 0 -5 7 6 18 18 17 20 17 40 -3 11 -11
19 -31 18 -43 -2 -21 0 -22 14 -10 12 9 15 9 9 1 -4 -8 -2 -13 6 -13 9 -1 7
-5 -4 -14 -21 -15 -23 -25 -5 -22 27 4 38 17 26 32 -9 11 -8 19 4 38 17 26 11
42 -9 25 -15 -12 -37 -3 -29 12 4 5 2 9 -3 9 -5 0 -9 8 -9 18 0 9 -1 22 -2 28
-1 13 -30 14 -37 2z m32 -23 c-1 -8 -6 -18 -11 -22 -4 -4 -5 -2 -1 5 4 6 3 12
-2 12 -5 0 -9 6 -9 14 0 8 6 12 13 9 6 -2 11 -11 10 -18z m-127 -62 c-6 -7
-15 -10 -20 -7 -13 8 -3 21 15 21 12 0 13 -4 5 -14z m191 13 c0 -2 -8 -10 -17
-17 -16 -13 -17 -12 -4 4 13 16 21 21 21 13z"/>
<path d="M2273 5053 c-22 -34 -24 -50 -7 -57 8 -3 11 -12 7 -22 -4 -11 -2 -15
4 -11 6 4 20 -4 30 -18 l19 -26 23 25 c23 24 37 86 20 86 -5 0 -12 0 -16 0 -5
0 -8 -4 -8 -9 0 -5 -3 -12 -7 -15 -5 -3 -6 -3 -3 0 8 11 -15 45 -26 38 -6 -4
-6 -11 2 -20 9 -12 9 -13 -3 -9 -9 4 -15 0 -15 -10 0 -8 4 -16 9 -16 4 -1 14
-2 21 -3 6 -1 19 4 28 11 13 11 16 11 16 -2 0 -8 -4 -12 -9 -9 -4 3 -5 -3 -2
-13 4 -13 3 -14 -3 -5 -8 10 -12 10 -23 -2 -12 -16 -35 -12 -25 4 3 4 -2 11
-11 14 -8 3 -12 11 -8 17 4 7 3 9 -3 6 -6 -4 -13 0 -16 8 -4 10 -1 12 10 8 13
-5 15 -2 10 12 -4 9 -2 24 4 31 6 8 9 14 5 14 -3 0 -13 -12 -23 -27z m77 -97
c0 -2 -8 -10 -17 -17 -16 -13 -17 -12 -4 4 13 16 21 21 21 13z"/>
<path d="M1849 5033 c-13 -16 -12 -17 4 -4 9 7 17 15 17 17 0 8 -8 3 -21 -13z"/>
<path d="M2269 4913 c-13 -16 -12 -17 4 -4 9 7 17 15 17 17 0 8 -8 3 -21 -13z"/>
<path d="M2350 4905 c-6 -8 -9 -20 -5 -27 4 -7 1 -6 -7 2 -14 17 -32 20 -45 7
-4 -5 -3 -8 2 -7 27 6 37 0 26 -14 -8 -9 -8 -16 -2 -20 5 -4 12 -2 16 4 11 18
24 11 20 -11 -3 -12 -1 -19 2 -15 12 11 12 40 1 53 -7 9 -7 17 2 28 7 8 10 15
7 15 -2 0 -10 -7 -17 -15z"/>
<path d="M1919 4893 c-13 -16 -12 -17 4 -4 9 7 17 15 17 17 0 8 -8 3 -21 -13z"/>
<path d="M1945 4872 c-10 -10 6 -21 22 -15 10 4 14 2 9 -5 -11 -18 11 -23 25
-5 10 12 10 15 1 9 -7 -4 -14 -1 -18 7 -5 13 -29 19 -39 9z"/>
<path d="M1943 4793 c0 -9 4 -10 14 -2 7 6 13 12 13 14 0 1 -6 2 -13 2 -8 0
-14 -6 -14 -14z"/>
<path d="M1334 5249 c0 -12 4 -15 12 -9 6 6 14 7 18 3 4 -4 4 0 1 8 -8 21 -31
20 -31 -2z"/>
<path d="M1525 5260 c-2 -3 -1 -10 3 -16 8 -11 32 -13 32 -1 0 4 0 11 0 15 0
10 -29 12 -35 2z"/>
<path d="M1589 5223 c-13 -16 -12 -17 4 -4 9 7 17 15 17 17 0 8 -8 3 -21 -13z"/>
<path d="M1446 5212 c-8 -8 6 -32 15 -26 5 3 12 -2 15 -11 5 -11 10 -13 19 -5
8 7 12 5 12 -8 0 -19 -57 -105 -65 -97 -8 8 -32 -16 -26 -26 3 -5 0 -17 -5
-28 -14 -26 13 -22 33 5 8 10 20 19 28 19 7 0 13 9 13 20 0 11 6 21 13 21 6 1
14 3 17 4 3 1 9 3 15 4 5 0 17 12 26 25 16 23 18 23 31 6 7 -11 13 -15 13 -9
0 5 6 2 13 -6 7 -9 20 -16 30 -17 34 -1 38 -3 32 -12 -3 -5 -1 -12 4 -15 5 -4
8 2 6 11 -2 10 -4 21 -4 25 -1 4 -10 5 -21 3 -11 -2 -18 0 -15 5 3 5 14 7 25
5 11 -2 24 3 28 12 8 13 10 13 16 -2 5 -14 9 -15 21 -5 27 22 0 47 -31 28 -6
-4 -20 0 -30 8 -10 9 -14 13 -7 10 18 -9 24 9 10 28 -12 16 -14 16 -26 3 -10
-13 -9 -21 5 -44 10 -15 14 -25 9 -21 -4 4 -14 3 -21 -2 -9 -8 -18 -1 -34 24
-12 20 -19 40 -15 46 14 22 -3 8 -24 -21 -13 -18 -18 -28 -11 -24 9 5 11 4 6
-4 -6 -8 -12 -9 -20 -2 -7 6 -15 8 -18 5 -3 -2 -8 2 -11 10 -4 9 -2 18 3 21
18 11 10 24 -10 20 -12 -2 -23 2 -26 9 -5 12 -29 18 -38 8z m158 -83 c-3 -5
-10 -7 -15 -3 -5 3 -7 10 -3 15 3 5 10 7 15 3 5 -3 7 -10 3 -15z m-88 -16 c-2
-10 -7 -18 -12 -18 -5 0 -16 -4 -24 -9 -8 -5 -4 3 9 17 29 32 30 32 27 10z
m-40 -65 c4 -7 3 -10 -1 -5 -5 4 -18 -1 -29 -10 -21 -18 -21 -18 -2 5 22 26
23 26 32 10z"/>
<path d="M1276 5131 c-4 -6 -12 -9 -17 -6 -5 3 -6 0 -3 -8 5 -15 48 -17 61 -3
4 5 3 6 -4 2 -6 -3 -16 1 -21 10 -6 12 -11 13 -16 5z"/>
<path d="M1449 5123 c-13 -16 -12 -17 4 -4 9 7 17 15 17 17 0 8 -8 3 -21 -13z"/>
<path d="M1559 5063 c-13 -16 -12 -17 4 -4 9 7 17 15 17 17 0 8 -8 3 -21 -13z"/>
<path d="M1589 5043 c-13 -16 -12 -17 4 -4 16 13 21 21 13 21 -2 0 -10 -8 -17
-17z"/>
<path d="M1316 5032 c-2 -4 -1 -14 4 -22 7 -11 9 -9 7 8 -1 24 -3 26 -11 14z"/>
<path d="M1499 5013 c-13 -16 -12 -17 4 -4 9 7 17 15 17 17 0 8 -8 3 -21 -13z"/>
<path d="M1675 5010 c-4 -6 -10 -8 -15 -5 -5 3 -11 1 -14 -4 -8 -13 22 -7 36
7 7 7 9 12 6 12 -4 0 -10 -5 -13 -10z"/>
<path d="M1536 5002 c-3 -5 1 -9 9 -9 8 0 12 4 9 9 -3 4 -7 8 -9 8 -2 0 -6 -4
-9 -8z"/>
<path d="M1819 4998 c-7 -22 -3 -45 7 -44 22 3 28 15 10 22 -9 3 -13 10 -10
15 3 5 3 9 0 9 -3 0 -6 -1 -7 -2z"/>
<path d="M1289 4963 c-12 -16 -12 -17 2 -6 9 7 20 9 24 5 5 -4 5 -1 1 6 -9 16
-11 15 -27 -5z"/>
<path d="M1436 4968 c3 -5 10 -6 15 -3 13 9 11 12 -6 12 -8 0 -12 -4 -9 -9z"/>
<path d="M1720 4953 c-22 -28 -55 -41 -46 -18 2 7 -1 12 -9 11 -20 -3 -30 -14
-30 -34 0 -9 -7 -17 -15 -17 -8 -1 -14 -7 -12 -15 7 -32 21 -30 47 4 23 30 30
34 46 25 11 -6 17 -15 13 -22 -4 -7 -3 -8 2 -4 5 5 10 13 10 18 1 5 2 14 3 19
0 6 6 9 12 8 14 -4 22 39 10 47 -5 3 -19 -7 -31 -22z m30 13 c0 -2 -8 -10 -17
-17 -16 -13 -17 -12 -4 4 13 16 21 21 21 13z m-100 -76 c-12 -16 -24 -30 -26
-30 -3 0 4 14 16 30 12 17 24 30 26 30 3 0 -4 -13 -16 -30z"/>
<path d="M1603 4953 c0 -9 4 -10 14 -2 7 6 13 12 13 14 0 1 -6 2 -13 2 -8 0
-14 -6 -14 -14z"/>
<path d="M1339 4943 c-13 -16 -12 -17 4 -4 9 7 17 15 17 17 0 8 -8 3 -21 -13z"/>
<path d="M1789 4923 c-13 -16 -12 -17 4 -4 9 7 17 15 17 17 0 8 -8 3 -21 -13z"/>
<path d="M1823 4895 c0 -8 4 -12 9 -9 5 3 6 10 3 15 -9 13 -12 11 -12 -6z"/>
<path d="M1339 4883 c-13 -16 -12 -17 4 -4 16 13 21 21 13 21 -2 0 -10 -8 -17
-17z"/>
<path d="M1775 4851 c-3 -5 -2 -12 3 -15 5 -3 9 1 9 9 0 17 -3 19 -12 6z"/>
<path d="M1805 4831 c-15 -17 -15 -19 -1 -17 22 3 40 22 28 30 -5 3 -17 -3
-27 -13z"/>
<path d="M1235 4800 c-4 -6 -11 -7 -17 -4 -7 4 -8 2 -4 -5 6 -9 11 -9 22 0 14
11 18 19 10 19 -3 0 -8 -5 -11 -10z"/>
<path d="M1186 4761 c-4 -6 -12 -8 -18 -5 -7 4 -8 2 -4 -5 4 -6 2 -19 -6 -28
-7 -10 -8 -14 -1 -10 6 4 13 2 15 -5 2 -6 12 -12 22 -14 10 -1 15 0 12 3 -3 3
-1 13 4 23 11 21 -12 61 -24 41z"/>
<path d="M1236 4742 c-3 -5 1 -9 9 -9 8 0 12 4 9 9 -3 4 -7 8 -9 8 -2 0 -6 -4
-9 -8z"/>
<path d="M1075 5030 c-4 -6 -11 -7 -17 -4 -7 4 -8 2 -4 -5 6 -9 11 -9 22 0 14
11 18 19 10 19 -3 0 -8 -5 -11 -10z"/>
<path d="M956 4892 c-3 -5 1 -9 9 -9 8 0 12 4 9 9 -3 4 -7 8 -9 8 -2 0 -6 -4
-9 -8z"/>
<path d="M1136 4902 c-3 -5 1 -9 9 -9 8 0 12 4 9 9 -3 4 -7 8 -9 8 -2 0 -6 -4
-9 -8z"/>
<path d="M1426 4912 c-3 -5 1 -9 9 -9 8 0 12 4 9 9 -3 4 -7 8 -9 8 -2 0 -6 -4
-9 -8z"/>
<path d="M2223 4859 c-5 -5 -19 -11 -30 -12 -11 0 -20 -7 -20 -14 0 -9 4 -10
12 -3 9 8 12 3 9 -15 -2 -21 0 -24 12 -14 7 6 11 15 8 20 -3 5 1 12 9 15 7 2
14 11 14 19 0 18 0 18 -14 4z"/>
<path d="M2244 4836 c-11 -6 -19 -17 -16 -24 3 -10 8 -7 19 7 8 12 19 18 25
15 7 -4 8 -2 4 4 -4 7 -8 12 -9 11 -1 -1 -11 -6 -23 -13z"/>
<path d="M2139 4783 c-13 -16 -12 -17 4 -4 9 7 17 15 17 17 0 8 -8 3 -21 -13z"/>
<path d="M2314 4778 l-19 -23 23 19 c21 18 27 26 19 26 -2 0 -12 -10 -23 -22z"/>
<path d="M2185 4730 c-3 -5 -1 -11 5 -15 5 -3 10 -3 10 1 0 4 6 0 13 -10 11
-15 14 -15 14 -4 0 19 -34 41 -42 28z"/>
<path d="M1371 4867 c-8 -10 -7 -14 2 -14 8 0 14 6 14 14 0 7 -1 13 -2 13 -2
0 -8 -6 -14 -13z"/>
<path d="M1879 4843 c-13 -16 -12 -17 4 -4 9 7 17 15 17 17 0 8 -8 3 -21 -13z"/>
<path d="M1896 4738 c3 -5 10 -6 15 -3 13 9 11 12 -6 12 -8 0 -12 -4 -9 -9z"/>
<path d="M966 4842 c-3 -5 1 -9 9 -9 8 0 12 4 9 9 -3 4 -7 8 -9 8 -2 0 -6 -4
-9 -8z"/>
<path d="M1414 4839 c-2 -4 4 -12 14 -18 14 -7 18 -6 18 8 0 18 -23 25 -32 10z"/>
<path d="M1316 4822 c-3 -5 1 -9 9 -9 8 0 12 4 9 9 -3 4 -7 8 -9 8 -2 0 -6 -4
-9 -8z"/>
<path d="M1576 4822 c-3 -5 1 -9 9 -9 8 0 12 4 9 9 -3 4 -7 8 -9 8 -2 0 -6 -4
-9 -8z"/>
<path d="M1616 4811 c-4 -5 -2 -12 3 -15 5 -4 12 -2 15 3 4 5 2 12 -3 15 -5 4
-12 2 -15 -3z"/>
<path d="M1969 4763 c-13 -16 -12 -17 4 -4 9 7 17 15 17 17 0 8 -8 3 -21 -13z"/>
<path d="M2009 4758 c-8 -31 -6 -38 7 -27 14 11 20 1 14 -26 -1 -5 2 -6 6 -2
15 15 12 37 -7 47 -10 6 -19 9 -20 8z"/>
<path d="M2289 4803 c-13 -16 -12 -17 4 -4 16 13 21 21 13 21 -2 0 -10 -8 -17
-17z"/>
<path d="M1366 4802 c-3 -5 1 -9 9 -9 8 0 12 4 9 9 -3 4 -7 8 -9 8 -2 0 -6 -4
-9 -8z"/>
<path d="M1491 4797 c-8 -10 -7 -14 2 -14 8 0 14 6 14 14 0 7 -1 13 -2 13 -2
0 -8 -6 -14 -13z"/>
<path d="M2039 4793 c-13 -16 -12 -17 4 -4 16 13 21 21 13 21 -2 0 -10 -8 -17
-17z"/>
<path d="M2066 4758 c3 -5 10 -6 15 -3 13 9 11 12 -6 12 -8 0 -12 -4 -9 -9z"/>
<path d="M1656 4782 c-3 -5 1 -9 9 -9 8 0 12 4 9 9 -3 4 -7 8 -9 8 -2 0 -6 -4
-9 -8z"/>
<path d="M1314 4759 c-8 -14 14 -19 25 -6 8 10 7 14 -5 14 -8 0 -17 -4 -20 -8z"/>
<path d="M1366 4728 c3 -5 10 -6 15 -3 13 9 11 12 -6 12 -8 0 -12 -4 -9 -9z"/>
<path d="M1316 4688 c3 -5 10 -6 15 -3 13 9 11 12 -6 12 -8 0 -12 -4 -9 -9z"/>
<path d="M1856 4702 c-3 -5 1 -9 9 -9 8 0 12 4 9 9 -3 4 -7 8 -9 8 -2 0 -6 -4
-9 -8z"/>
<path d="M1999 4663 c-13 -16 -12 -17 4 -4 9 7 17 15 17 17 0 8 -8 3 -21 -13z"/>
<path d="M2056 4608 c3 -5 10 -6 15 -3 13 9 11 12 -6 12 -8 0 -12 -4 -9 -9z"/>
<path d="M2078 4570 c-23 -31 -33 -64 -17 -54 5 3 7 9 4 14 -3 5 -2 11 3 14 5
3 9 -1 10 -9 1 -8 3 -22 4 -30 1 -8 5 -12 10 -9 5 3 6 9 4 13 -6 10 11 36 24
36 5 0 10 3 10 8 0 4 0 10 0 13 0 4 -7 1 -15 -6 -23 -19 -39 -1 -19 21 9 10
14 19 11 19 -4 0 -16 -14 -29 -30z"/>
<path d="M1456 4692 c-3 -5 1 -9 9 -9 8 0 12 4 9 9 -3 4 -7 8 -9 8 -2 0 -6 -4
-9 -8z"/>
<path d="M2129 4633 c-13 -16 -12 -17 4 -4 9 7 17 15 17 17 0 8 -8 3 -21 -13z"/>
<path d="M2249 4673 c-13 -16 -12 -17 4 -4 9 7 17 15 17 17 0 8 -8 3 -21 -13z"/>
<path d="M2275 4571 c-3 -5 -2 -12 3 -15 5 -3 9 1 9 9 0 17 -3 19 -12 6z"/>
<path d="M996 4672 c-3 -5 1 -9 9 -9 8 0 12 4 9 9 -3 4 -7 8 -9 8 -2 0 -6 -4
-9 -8z"/>
<path d="M1355 4669 c-3 -4 2 -6 10 -5 21 3 28 13 10 13 -9 0 -18 -4 -20 -8z"/>
<path d="M1326 4632 c-3 -5 1 -9 9 -9 8 0 12 4 9 9 -3 4 -7 8 -9 8 -2 0 -6 -4
-9 -8z"/>
<path d="M1611 4667 c-8 -10 -7 -14 2 -14 8 0 14 6 14 14 0 7 -1 13 -2 13 -2
0 -8 -6 -14 -13z"/>
<path d="M1859 4623 c-13 -16 -12 -17 4 -4 9 7 17 15 17 17 0 8 -8 3 -21 -13z"/>
<path d="M2099 4678 c0 -2 -2 -11 -4 -21 -3 -15 -1 -16 11 -6 7 6 11 15 8 20
-5 9 -13 12 -15 7z"/>
<path d="M1286 4648 c3 -5 10 -6 15 -3 13 9 11 12 -6 12 -8 0 -12 -4 -9 -9z"/>
<path d="M1406 4652 c-3 -5 1 -9 9 -9 8 0 12 4 9 9 -3 4 -7 8 -9 8 -2 0 -6 -4
-9 -8z"/>
<path d="M1413 4585 c0 -8 4 -12 9 -9 5 3 6 10 3 15 -9 13 -12 11 -12 -6z"/>
<path d="M1926 4651 c-4 -5 -2 -12 3 -15 5 -4 12 -2 15 3 4 5 2 12 -3 15 -5 4
-12 2 -15 -3z"/>
<path d="M1959 4613 c-13 -16 -12 -17 4 -4 16 13 21 21 13 21 -2 0 -10 -8 -17
-17z"/>
<path d="M1885 4601 c-3 -5 -2 -12 3 -15 5 -3 9 1 9 9 0 17 -3 19 -12 6z"/>
<path d="M1196 4592 c-3 -5 1 -9 9 -9 8 0 12 4 9 9 -3 4 -7 8 -9 8 -2 0 -6 -4
-9 -8z"/>
<path d="M1793 4613 c4 -3 1 -13 -6 -22 -11 -14 -10 -14 5 -2 16 12 16 31 1
31 -4 0 -3 -3 0 -7z"/>
<path d="M2209 4623 c-13 -16 -12 -17 4 -4 9 7 17 15 17 17 0 8 -8 3 -21 -13z"/>
<path d="M1993 4585 c0 -8 4 -12 9 -9 5 3 6 10 3 15 -9 13 -12 11 -12 -6z"/>
<path d="M1856 4561 c-4 -5 -2 -12 3 -15 5 -4 12 -2 15 3 4 5 2 12 -3 15 -5 4
-12 2 -15 -3z"/>
<path d="M1336 4568 c3 -5 10 -6 15 -3 13 9 11 12 -6 12 -8 0 -12 -4 -9 -9z"/>
<path d="M1753 4555 c0 -8 4 -12 9 -9 5 3 6 10 3 15 -9 13 -12 11 -12 -6z"/>
<path d="M2235 4521 c-3 -5 -2 -12 3 -15 5 -3 9 1 9 9 0 17 -3 19 -12 6z"/>
<path d="M1286 4528 c3 -5 10 -6 15 -3 13 9 11 12 -6 12 -8 0 -12 -4 -9 -9z"/>
<path d="M1453 4495 c0 -8 4 -12 9 -9 5 3 6 10 3 15 -9 13 -12 11 -12 -6z"/>
<path d="M1776 4462 c-3 -5 1 -9 9 -9 8 0 12 4 9 9 -3 4 -7 8 -9 8 -2 0 -6 -4
-9 -8z"/>
<path d="M1886 4522 c-3 -5 1 -9 9 -9 8 0 12 4 9 9 -3 4 -7 8 -9 8 -2 0 -6 -4
-9 -8z"/>
<path d="M1923 4495 c0 -8 4 -12 9 -9 5 3 6 10 3 15 -9 13 -12 11 -12 -6z"/>
<path d="M1823 4505 c0 -8 4 -12 9 -9 5 3 6 10 3 15 -9 13 -12 11 -12 -6z"/>
<path d="M2301 4466 c-9 -11 -9 -16 1 -22 7 -4 10 -4 6 1 -4 4 -3 14 3 22 6 7
9 13 6 13 -2 0 -10 -6 -16 -14z"/>
<path d="M1849 4473 c-13 -16 -12 -17 4 -4 16 13 21 21 13 21 -2 0 -10 -8 -17
-17z"/>
<path d="M2209 4463 c-13 -16 -12 -17 4 -4 9 7 17 15 17 17 0 8 -8 3 -21 -13z"/>
<path d="M1416 4448 c3 -5 10 -6 15 -3 13 9 11 12 -6 12 -8 0 -12 -4 -9 -9z"/>
<path d="M2083 4425 c0 -8 4 -12 9 -9 5 3 6 10 3 15 -9 13 -12 11 -12 -6z"/>
<path d="M2235 4441 c-3 -5 -2 -12 3 -15 5 -3 9 1 9 9 0 17 -3 19 -12 6z"/>
<path d="M1296 4412 c-3 -5 1 -9 9 -9 8 0 12 4 9 9 -3 4 -7 8 -9 8 -2 0 -6 -4
-9 -8z"/>
<path d="M1573 4405 c0 -8 4 -12 9 -9 5 3 6 10 3 15 -9 13 -12 11 -12 -6z"/>
<path d="M2015 4411 c-3 -5 -2 -12 3 -15 5 -3 9 1 9 9 0 17 -3 19 -12 6z"/>
<path d="M1713 4365 c0 -8 4 -12 9 -9 5 3 6 10 3 15 -9 13 -12 11 -12 -6z"/>
<path d="M1745 4341 c-3 -5 -2 -12 3 -15 5 -3 9 1 9 9 0 17 -3 19 -12 6z"/>
<path d="M2173 4325 c0 -8 4 -12 9 -9 5 3 6 10 3 15 -9 13 -12 11 -12 -6z"/>
<path d="M1821 4356 c-8 -10 -9 -16 -1 -21 5 -3 10 -5 11 -3 4 18 7 38 4 38
-1 0 -8 -6 -14 -14z"/>
<path d="M1386 4348 c3 -5 10 -6 15 -3 13 9 11 12 -6 12 -8 0 -12 -4 -9 -9z"/>
<path d="M1433 4325 c0 -8 4 -12 9 -9 5 3 6 10 3 15 -9 13 -12 11 -12 -6z"/>
<path d="M1683 4325 c0 -8 4 -12 9 -9 5 3 6 10 3 15 -9 13 -12 11 -12 -6z"/>
<path d="M2015 4331 c-3 -5 -2 -12 3 -15 5 -3 9 1 9 9 0 17 -3 19 -12 6z"/>
<path d="M1975 4281 c-3 -5 -2 -12 3 -15 5 -3 9 1 9 9 0 17 -3 19 -12 6z"/>
<path d="M1883 4285 c0 -8 4 -12 9 -9 5 3 6 10 3 15 -9 13 -12 11 -12 -6z"/>
<path d="M1236 4291 c-4 -5 -2 -12 3 -15 5 -4 12 -2 15 3 4 5 2 12 -3 15 -5 4
-12 2 -15 -3z"/>
<path d="M1396 4292 c-3 -5 1 -9 9 -9 8 0 12 4 9 9 -3 4 -7 8 -9 8 -2 0 -6 -4
-9 -8z"/>
<path d="M1483 4225 c0 -8 4 -12 9 -9 5 3 6 10 3 15 -9 13 -12 11 -12 -6z"/>
<path d="M1793 4225 c0 -8 4 -12 9 -9 5 3 6 10 3 15 -9 13 -12 11 -12 -6z"/>
<path d="M1700 3613 c0 -13 5 -23 10 -23 13 0 13 11 0 30 -8 12 -10 11 -10 -7z"/>
<path d="M2474 331 c-26 -12 -74 -67 -75 -89 -4 -58 9 -89 44 -105 38 -18 96
-10 127 18 44 40 50 124 11 159 -22 20 -78 29 -107 17z"/>
</g>
</svg>
